%
M48
M72
T01C0.0150
T02C0.0236
T03C0.0300
T04C0.0354
T05C0.0400
T06C0.1180
T07C0.1300
%
T01
X4652Y2104
X6402Y2104
X6952Y2954
X7402Y1854
X8652Y2954
X8602Y5054
X10152Y6394
X10452Y7254
X10682Y7594
X10932Y7884
X11172Y8184
X10652Y8404
X11352Y9404
X11352Y10154
X10952Y10154
X10802Y10704
X10202Y10504
X9452Y11054
X9152Y11354
X6477Y11804
X5252Y11454
X5052Y11804
X5252Y10154
X5252Y9154
X5252Y8654
X5242Y8154
X6602Y9204
X7102Y7254
X6752Y7104
X10852Y2954
X12102Y5304
X11752Y5454
X12102Y5804
X12552Y5504
X12902Y5404
X13232Y5524
X12372Y6294
X12352Y7054
X12852Y7054
X12877Y7529
X13287Y7319
X12327Y7784
X11352Y7074
X11322Y6644
X13552Y8799
X14252Y8814
X13152Y10154
X12982Y11194
X12652Y11204
X12152Y11204
X12152Y12054
X12352Y12354
X13252Y12104
X16002Y12629
X16002Y14679
X17052Y15654
X16052Y15979
X15052Y15954
X12702Y15554
X8792Y16604
X7852Y17554
X5952Y17604
X4252Y17654
X3402Y19504
X2002Y18304
X1902Y17614
X4702Y14704
X5052Y14704
X5952Y15054
X7202Y15654
X15052Y7329
X15442Y7354
X15852Y7354
X16002Y6504
X16452Y5554
X15252Y5554
X14902Y5554
X16952Y7304
X17252Y7454
X16052Y9074
X16052Y9664
X16232Y10154
X17802Y9904
X18852Y13854
X19552Y13854
X18102Y14864
X18627Y15704
X18142Y16614
X18052Y17304
X20702Y17154
X20727Y16204
X14252Y3054
T02
X9802Y4154
X9302Y4904
X9252Y6004
X7152Y6304
X7702Y3604
X4302Y8304
X3902Y16554
X3952Y17354
T03
X2952Y18104
T04
X3552Y11620
X3552Y9888
T05
X2182Y6054
X2182Y5054
X8052Y1554
X9052Y1554
X10052Y1554
X11052Y1554
X12052Y1554
X13052Y1554
X15052Y1554
X16052Y1554
X17052Y1554
X18052Y1554
X19052Y1554
X20052Y1554
X20052Y5054
X20052Y6054
X21052Y6054
X21052Y5054
X21052Y7054
X21052Y8054
X20052Y8054
X20052Y7054
X20052Y9054
X21052Y9054
X21052Y10054
X21052Y11054
X20052Y11054
X20052Y10054
X20052Y12054
X20052Y13054
X21052Y13054
X21052Y12054
X20052Y19554
X19052Y19554
X18052Y19554
X17052Y19554
X16052Y19554
X15052Y19554
X14052Y19554
X13052Y19554
X13052Y20554
X14052Y20554
X15052Y20554
X16052Y20554
X17052Y20554
X18052Y20554
X19052Y20554
X20052Y20554
X11402Y20554
X10402Y20554
X9402Y20554
X8402Y20554
X7402Y20554
X6402Y20554
X5402Y20554
X4402Y20554
X4052Y19554
X5052Y19554
X6052Y19554
X7052Y19554
X8052Y19554
X9052Y19554
X10052Y19554
X11052Y19554
X8552Y14804
X8552Y13804
X8552Y12804
X8552Y11804
X7552Y11804
X7552Y12804
X7552Y13804
X7552Y14804
X8552Y10054
X9552Y10054
X9552Y9054
X8552Y9054
X8552Y8054
X8552Y7054
X9552Y7054
X9552Y8054
T06
X5896Y5554
X4715Y3704
X3534Y5554
T07
X2552Y1554
X21052Y3254
X21052Y14854
X2552Y20554
M30
