G75*
G70*
%OFA0B0*%
%FSLAX24Y24*%
%IPPOS*%
%LPD*%
%AMOC8*
5,1,8,0,0,1.08239X$1,22.5*
%
%ADD10C,0.0000*%
%ADD11C,0.0600*%
%ADD12C,0.0088*%
%ADD13C,0.0101*%
%ADD14C,0.0126*%
%ADD15C,0.0202*%
%ADD16C,0.0038*%
%ADD17C,0.0139*%
%ADD18C,0.0063*%
%ADD19C,0.0252*%
%ADD20C,0.1580*%
%ADD21C,0.0600*%
%ADD22C,0.0151*%
%ADD23C,0.0035*%
%ADD24C,0.0050*%
%ADD25R,0.0600X0.0600*%
%ADD26OC8,0.0600*%
%ADD27C,0.0450*%
%ADD28C,0.0270*%
%ADD29C,0.0160*%
%ADD30C,0.0240*%
%ADD31C,0.0100*%
%ADD32C,0.0080*%
%ADD33C,0.0320*%
%ADD34C,0.0356*%
%ADD35C,0.0400*%
D10*
X001552Y001554D02*
X001552Y020554D01*
X001902Y020554D02*
X001937Y020765D01*
X002039Y020953D01*
X002196Y021098D01*
X002392Y021184D01*
X002606Y021202D01*
X002813Y021149D01*
X002992Y021032D01*
X003124Y020863D01*
X003193Y020661D01*
X003193Y020447D01*
X003124Y020245D01*
X002992Y020076D01*
X002813Y019959D01*
X002606Y019906D01*
X002392Y019924D01*
X002196Y020010D01*
X002039Y020155D01*
X001937Y020343D01*
X001902Y020554D01*
X001552Y020554D02*
X001586Y020813D01*
X001686Y021054D01*
X001845Y021261D01*
X002052Y021420D01*
X002293Y021520D01*
X002552Y021554D01*
X020552Y021554D01*
X020707Y021530D01*
X020846Y021459D01*
X020957Y021348D01*
X021028Y021209D01*
X021052Y021054D01*
X021052Y016554D01*
X022052Y015554D01*
X022052Y002554D01*
X021052Y001554D01*
X021052Y000804D01*
X021033Y000708D01*
X020979Y000627D01*
X020898Y000573D01*
X020802Y000554D01*
X002552Y000554D01*
X002293Y000588D01*
X002052Y000688D01*
X001845Y000847D01*
X001686Y001054D01*
X001586Y001295D01*
X001552Y001554D01*
X001902Y001554D02*
X001937Y001765D01*
X002039Y001953D01*
X002196Y002098D01*
X002392Y002184D01*
X002606Y002202D01*
X002813Y002149D01*
X002992Y002032D01*
X003124Y001863D01*
X003193Y001661D01*
X003193Y001447D01*
X003124Y001245D01*
X002992Y001076D01*
X002813Y000959D01*
X002606Y000906D01*
X002392Y000924D01*
X002196Y001010D01*
X002039Y001155D01*
X001937Y001343D01*
X001902Y001554D01*
X003375Y009888D02*
X003409Y009992D01*
X003497Y010056D01*
X003607Y010056D01*
X003695Y009992D01*
X003729Y009888D01*
X003695Y009784D01*
X003607Y009720D01*
X003497Y009720D01*
X003409Y009784D01*
X003375Y009888D01*
X003375Y011620D02*
X003409Y011724D01*
X003497Y011788D01*
X003607Y011788D01*
X003695Y011724D01*
X003729Y011620D01*
X003695Y011516D01*
X003607Y011452D01*
X003497Y011452D01*
X003409Y011516D01*
X003375Y011620D01*
X020402Y014854D02*
X020437Y015065D01*
X020539Y015253D01*
X020696Y015398D01*
X020892Y015484D01*
X021106Y015502D01*
X021313Y015449D01*
X021492Y015332D01*
X021624Y015163D01*
X021693Y014961D01*
X021693Y014747D01*
X021624Y014545D01*
X021492Y014376D01*
X021313Y014259D01*
X021106Y014206D01*
X020892Y014224D01*
X020696Y014310D01*
X020539Y014455D01*
X020437Y014643D01*
X020402Y014854D01*
X020402Y003254D02*
X020437Y003465D01*
X020539Y003653D01*
X020696Y003798D01*
X020892Y003884D01*
X021106Y003902D01*
X021313Y003849D01*
X021492Y003732D01*
X021624Y003563D01*
X021693Y003361D01*
X021693Y003147D01*
X021624Y002945D01*
X021492Y002776D01*
X021313Y002659D01*
X021106Y002606D01*
X020892Y002624D01*
X020696Y002710D01*
X020539Y002855D01*
X020437Y003043D01*
X020402Y003254D01*
D11*
X020052Y001554D02*
X020052Y001194D01*
X019052Y001194D02*
X019052Y001554D01*
X018052Y001554D02*
X018052Y001194D01*
X017052Y001194D02*
X017052Y001554D01*
X016052Y001554D02*
X016052Y001194D01*
X015052Y001194D02*
X015052Y001554D01*
X013052Y001554D02*
X013052Y001194D01*
X012052Y001194D02*
X012052Y001554D01*
X011052Y001554D02*
X011052Y001194D01*
X010052Y001194D02*
X010052Y001554D01*
X009052Y001554D02*
X009052Y001194D01*
X008052Y001194D02*
X008052Y001554D01*
X008402Y020554D02*
X008402Y020914D01*
X007402Y020914D02*
X007402Y020554D01*
X006402Y020554D02*
X006402Y020914D01*
X005402Y020914D02*
X005402Y020554D01*
X004402Y020554D02*
X004402Y020914D01*
X009402Y020914D02*
X009402Y020554D01*
X010402Y020554D02*
X010402Y020914D01*
X011402Y020914D02*
X011402Y020554D01*
X013052Y020554D02*
X013052Y020914D01*
X014052Y020914D02*
X014052Y020554D01*
X015052Y020554D02*
X015052Y020914D01*
X016052Y020914D02*
X016052Y020554D01*
X017052Y020554D02*
X017052Y020914D01*
X018052Y020914D02*
X018052Y020554D01*
X019052Y020554D02*
X019052Y020914D01*
X020052Y020914D02*
X020052Y020554D01*
D12*
X018235Y015804D02*
X018235Y015616D01*
X017969Y015616D01*
X017969Y015804D01*
X018235Y015804D01*
X018235Y015703D02*
X017969Y015703D01*
X017969Y015790D02*
X018235Y015790D01*
X018235Y015292D02*
X018235Y015104D01*
X017969Y015104D01*
X017969Y015292D01*
X018235Y015292D01*
X018235Y015191D02*
X017969Y015191D01*
X017969Y015278D02*
X018235Y015278D01*
X018719Y015004D02*
X018719Y014816D01*
X018719Y015004D02*
X018985Y015004D01*
X018985Y014816D01*
X018719Y014816D01*
X018719Y014903D02*
X018985Y014903D01*
X018985Y014990D02*
X018719Y014990D01*
X018719Y014492D02*
X018719Y014304D01*
X018719Y014492D02*
X018985Y014492D01*
X018985Y014304D01*
X018719Y014304D01*
X018719Y014391D02*
X018985Y014391D01*
X018985Y014478D02*
X018719Y014478D01*
X019419Y014492D02*
X019419Y014304D01*
X019419Y014492D02*
X019685Y014492D01*
X019685Y014304D01*
X019419Y014304D01*
X019419Y014391D02*
X019685Y014391D01*
X019685Y014478D02*
X019419Y014478D01*
X019419Y014816D02*
X019419Y015004D01*
X019685Y015004D01*
X019685Y014816D01*
X019419Y014816D01*
X019419Y014903D02*
X019685Y014903D01*
X019685Y014990D02*
X019419Y014990D01*
X017552Y010037D02*
X017364Y010037D01*
X017552Y010037D02*
X017552Y009771D01*
X017364Y009771D01*
X017364Y010037D01*
X017364Y009858D02*
X017552Y009858D01*
X017552Y009945D02*
X017364Y009945D01*
X017364Y010032D02*
X017552Y010032D01*
X017040Y010037D02*
X016852Y010037D01*
X017040Y010037D02*
X017040Y009771D01*
X016852Y009771D01*
X016852Y010037D01*
X016852Y009858D02*
X017040Y009858D01*
X017040Y009945D02*
X016852Y009945D01*
X016852Y010032D02*
X017040Y010032D01*
X012582Y011481D02*
X012394Y011481D01*
X012394Y011747D01*
X012582Y011747D01*
X012582Y011481D01*
X012582Y011568D02*
X012394Y011568D01*
X012394Y011655D02*
X012582Y011655D01*
X012582Y011742D02*
X012394Y011742D01*
X012070Y011481D02*
X011882Y011481D01*
X011882Y011747D01*
X012070Y011747D01*
X012070Y011481D01*
X012070Y011568D02*
X011882Y011568D01*
X011882Y011655D02*
X012070Y011655D01*
X012070Y011742D02*
X011882Y011742D01*
X011935Y006704D02*
X011935Y006516D01*
X011669Y006516D01*
X011669Y006704D01*
X011935Y006704D01*
X011935Y006603D02*
X011669Y006603D01*
X011669Y006690D02*
X011935Y006690D01*
X011935Y006192D02*
X011935Y006004D01*
X011669Y006004D01*
X011669Y006192D01*
X011935Y006192D01*
X011935Y006091D02*
X011669Y006091D01*
X011669Y006178D02*
X011935Y006178D01*
X012002Y004751D02*
X012190Y004751D01*
X012002Y004751D02*
X012002Y005017D01*
X012190Y005017D01*
X012190Y004751D01*
X012190Y004838D02*
X012002Y004838D01*
X012002Y004925D02*
X012190Y004925D01*
X012190Y005012D02*
X012002Y005012D01*
X012514Y004751D02*
X012702Y004751D01*
X012514Y004751D02*
X012514Y005017D01*
X012702Y005017D01*
X012702Y004751D01*
X012702Y004838D02*
X012514Y004838D01*
X012514Y004925D02*
X012702Y004925D01*
X012702Y005012D02*
X012514Y005012D01*
X014385Y004004D02*
X014385Y003816D01*
X014119Y003816D01*
X014119Y004004D01*
X014385Y004004D01*
X014385Y003903D02*
X014119Y003903D01*
X014119Y003990D02*
X014385Y003990D01*
X014385Y003492D02*
X014385Y003304D01*
X014119Y003304D01*
X014119Y003492D01*
X014385Y003492D01*
X014385Y003391D02*
X014119Y003391D01*
X014119Y003478D02*
X014385Y003478D01*
X015502Y005687D02*
X015690Y005687D01*
X015690Y005421D01*
X015502Y005421D01*
X015502Y005687D01*
X015502Y005508D02*
X015690Y005508D01*
X015690Y005595D02*
X015502Y005595D01*
X015502Y005682D02*
X015690Y005682D01*
X016014Y005687D02*
X016202Y005687D01*
X016202Y005421D01*
X016014Y005421D01*
X016014Y005687D01*
X016014Y005508D02*
X016202Y005508D01*
X016202Y005595D02*
X016014Y005595D01*
X016014Y005682D02*
X016202Y005682D01*
X006869Y001704D02*
X006869Y001516D01*
X006869Y001704D02*
X007135Y001704D01*
X007135Y001516D01*
X006869Y001516D01*
X006869Y001603D02*
X007135Y001603D01*
X007135Y001690D02*
X006869Y001690D01*
X006869Y001192D02*
X006869Y001004D01*
X006869Y001192D02*
X007135Y001192D01*
X007135Y001004D01*
X006869Y001004D01*
X006869Y001091D02*
X007135Y001091D01*
X007135Y001178D02*
X006869Y001178D01*
X006222Y007531D02*
X006034Y007531D01*
X006034Y007797D01*
X006222Y007797D01*
X006222Y007531D01*
X006222Y007618D02*
X006034Y007618D01*
X006034Y007705D02*
X006222Y007705D01*
X006222Y007792D02*
X006034Y007792D01*
X006034Y008297D02*
X006222Y008297D01*
X006222Y008031D01*
X006034Y008031D01*
X006034Y008297D01*
X006034Y008118D02*
X006222Y008118D01*
X006222Y008205D02*
X006034Y008205D01*
X006034Y008292D02*
X006222Y008292D01*
X006222Y008797D02*
X006034Y008797D01*
X006222Y008797D02*
X006222Y008531D01*
X006034Y008531D01*
X006034Y008797D01*
X006034Y008618D02*
X006222Y008618D01*
X006222Y008705D02*
X006034Y008705D01*
X006034Y008792D02*
X006222Y008792D01*
X006222Y009031D02*
X006034Y009031D01*
X006034Y009297D01*
X006222Y009297D01*
X006222Y009031D01*
X006222Y009118D02*
X006034Y009118D01*
X006034Y009205D02*
X006222Y009205D01*
X006222Y009292D02*
X006034Y009292D01*
X006034Y009531D02*
X006222Y009531D01*
X006034Y009531D02*
X006034Y009797D01*
X006222Y009797D01*
X006222Y009531D01*
X006222Y009618D02*
X006034Y009618D01*
X006034Y009705D02*
X006222Y009705D01*
X006222Y009792D02*
X006034Y009792D01*
X006034Y010031D02*
X006222Y010031D01*
X006034Y010031D02*
X006034Y010297D01*
X006222Y010297D01*
X006222Y010031D01*
X006222Y010118D02*
X006034Y010118D01*
X006034Y010205D02*
X006222Y010205D01*
X006222Y010292D02*
X006034Y010292D01*
X006034Y010797D02*
X006222Y010797D01*
X006222Y010531D01*
X006034Y010531D01*
X006034Y010797D01*
X006034Y010618D02*
X006222Y010618D01*
X006222Y010705D02*
X006034Y010705D01*
X006034Y010792D02*
X006222Y010792D01*
X006222Y011297D02*
X006034Y011297D01*
X006222Y011297D02*
X006222Y011031D01*
X006034Y011031D01*
X006034Y011297D01*
X006034Y011118D02*
X006222Y011118D01*
X006222Y011205D02*
X006034Y011205D01*
X006034Y011292D02*
X006222Y011292D01*
X006222Y011531D02*
X006034Y011531D01*
X006034Y011797D01*
X006222Y011797D01*
X006222Y011531D01*
X006222Y011618D02*
X006034Y011618D01*
X006034Y011705D02*
X006222Y011705D01*
X006222Y011792D02*
X006034Y011792D01*
X006034Y012031D02*
X006222Y012031D01*
X006034Y012031D02*
X006034Y012297D01*
X006222Y012297D01*
X006222Y012031D01*
X006222Y012118D02*
X006034Y012118D01*
X006034Y012205D02*
X006222Y012205D01*
X006222Y012292D02*
X006034Y012292D01*
X006034Y012797D02*
X006222Y012797D01*
X006222Y012531D01*
X006034Y012531D01*
X006034Y012797D01*
X006034Y012618D02*
X006222Y012618D01*
X006222Y012705D02*
X006034Y012705D01*
X006034Y012792D02*
X006222Y012792D01*
X005710Y012797D02*
X005522Y012797D01*
X005710Y012797D02*
X005710Y012531D01*
X005522Y012531D01*
X005522Y012797D01*
X005522Y012618D02*
X005710Y012618D01*
X005710Y012705D02*
X005522Y012705D01*
X005522Y012792D02*
X005710Y012792D01*
X005710Y012031D02*
X005522Y012031D01*
X005522Y012297D01*
X005710Y012297D01*
X005710Y012031D01*
X005710Y012118D02*
X005522Y012118D01*
X005522Y012205D02*
X005710Y012205D01*
X005710Y012292D02*
X005522Y012292D01*
X005522Y011531D02*
X005710Y011531D01*
X005522Y011531D02*
X005522Y011797D01*
X005710Y011797D01*
X005710Y011531D01*
X005710Y011618D02*
X005522Y011618D01*
X005522Y011705D02*
X005710Y011705D01*
X005710Y011792D02*
X005522Y011792D01*
X005522Y011297D02*
X005710Y011297D01*
X005710Y011031D01*
X005522Y011031D01*
X005522Y011297D01*
X005522Y011118D02*
X005710Y011118D01*
X005710Y011205D02*
X005522Y011205D01*
X005522Y011292D02*
X005710Y011292D01*
X005710Y010797D02*
X005522Y010797D01*
X005710Y010797D02*
X005710Y010531D01*
X005522Y010531D01*
X005522Y010797D01*
X005522Y010618D02*
X005710Y010618D01*
X005710Y010705D02*
X005522Y010705D01*
X005522Y010792D02*
X005710Y010792D01*
X005710Y010031D02*
X005522Y010031D01*
X005522Y010297D01*
X005710Y010297D01*
X005710Y010031D01*
X005710Y010118D02*
X005522Y010118D01*
X005522Y010205D02*
X005710Y010205D01*
X005710Y010292D02*
X005522Y010292D01*
X005522Y009531D02*
X005710Y009531D01*
X005522Y009531D02*
X005522Y009797D01*
X005710Y009797D01*
X005710Y009531D01*
X005710Y009618D02*
X005522Y009618D01*
X005522Y009705D02*
X005710Y009705D01*
X005710Y009792D02*
X005522Y009792D01*
X005522Y009031D02*
X005710Y009031D01*
X005522Y009031D02*
X005522Y009297D01*
X005710Y009297D01*
X005710Y009031D01*
X005710Y009118D02*
X005522Y009118D01*
X005522Y009205D02*
X005710Y009205D01*
X005710Y009292D02*
X005522Y009292D01*
X005522Y008797D02*
X005710Y008797D01*
X005710Y008531D01*
X005522Y008531D01*
X005522Y008797D01*
X005522Y008618D02*
X005710Y008618D01*
X005710Y008705D02*
X005522Y008705D01*
X005522Y008792D02*
X005710Y008792D01*
X005710Y008297D02*
X005522Y008297D01*
X005710Y008297D02*
X005710Y008031D01*
X005522Y008031D01*
X005522Y008297D01*
X005522Y008118D02*
X005710Y008118D01*
X005710Y008205D02*
X005522Y008205D01*
X005522Y008292D02*
X005710Y008292D01*
X005710Y007531D02*
X005522Y007531D01*
X005522Y007797D01*
X005710Y007797D01*
X005710Y007531D01*
X005710Y007618D02*
X005522Y007618D01*
X005522Y007705D02*
X005710Y007705D01*
X005710Y007792D02*
X005522Y007792D01*
X006202Y014521D02*
X006390Y014521D01*
X006202Y014521D02*
X006202Y014787D01*
X006390Y014787D01*
X006390Y014521D01*
X006390Y014608D02*
X006202Y014608D01*
X006202Y014695D02*
X006390Y014695D01*
X006390Y014782D02*
X006202Y014782D01*
X006202Y015021D02*
X006390Y015021D01*
X006202Y015021D02*
X006202Y015287D01*
X006390Y015287D01*
X006390Y015021D01*
X006390Y015108D02*
X006202Y015108D01*
X006202Y015195D02*
X006390Y015195D01*
X006390Y015282D02*
X006202Y015282D01*
X006202Y015521D02*
X006390Y015521D01*
X006202Y015521D02*
X006202Y015787D01*
X006390Y015787D01*
X006390Y015521D01*
X006390Y015608D02*
X006202Y015608D01*
X006202Y015695D02*
X006390Y015695D01*
X006390Y015782D02*
X006202Y015782D01*
X006202Y016021D02*
X006390Y016021D01*
X006202Y016021D02*
X006202Y016287D01*
X006390Y016287D01*
X006390Y016021D01*
X006390Y016108D02*
X006202Y016108D01*
X006202Y016195D02*
X006390Y016195D01*
X006390Y016282D02*
X006202Y016282D01*
X006202Y016521D02*
X006390Y016521D01*
X006202Y016521D02*
X006202Y016787D01*
X006390Y016787D01*
X006390Y016521D01*
X006390Y016608D02*
X006202Y016608D01*
X006202Y016695D02*
X006390Y016695D01*
X006390Y016782D02*
X006202Y016782D01*
X006202Y017021D02*
X006390Y017021D01*
X006202Y017021D02*
X006202Y017287D01*
X006390Y017287D01*
X006390Y017021D01*
X006390Y017108D02*
X006202Y017108D01*
X006202Y017195D02*
X006390Y017195D01*
X006390Y017282D02*
X006202Y017282D01*
X006714Y017021D02*
X006902Y017021D01*
X006714Y017021D02*
X006714Y017287D01*
X006902Y017287D01*
X006902Y017021D01*
X006902Y017108D02*
X006714Y017108D01*
X006714Y017195D02*
X006902Y017195D01*
X006902Y017282D02*
X006714Y017282D01*
X006714Y016521D02*
X006902Y016521D01*
X006714Y016521D02*
X006714Y016787D01*
X006902Y016787D01*
X006902Y016521D01*
X006902Y016608D02*
X006714Y016608D01*
X006714Y016695D02*
X006902Y016695D01*
X006902Y016782D02*
X006714Y016782D01*
X006714Y016021D02*
X006902Y016021D01*
X006714Y016021D02*
X006714Y016287D01*
X006902Y016287D01*
X006902Y016021D01*
X006902Y016108D02*
X006714Y016108D01*
X006714Y016195D02*
X006902Y016195D01*
X006902Y016282D02*
X006714Y016282D01*
X006714Y015521D02*
X006902Y015521D01*
X006714Y015521D02*
X006714Y015787D01*
X006902Y015787D01*
X006902Y015521D01*
X006902Y015608D02*
X006714Y015608D01*
X006714Y015695D02*
X006902Y015695D01*
X006902Y015782D02*
X006714Y015782D01*
X006714Y015021D02*
X006902Y015021D01*
X006714Y015021D02*
X006714Y015287D01*
X006902Y015287D01*
X006902Y015021D01*
X006902Y015108D02*
X006714Y015108D01*
X006714Y015195D02*
X006902Y015195D01*
X006902Y015282D02*
X006714Y015282D01*
X006714Y014521D02*
X006902Y014521D01*
X006714Y014521D02*
X006714Y014787D01*
X006902Y014787D01*
X006902Y014521D01*
X006902Y014608D02*
X006714Y014608D01*
X006714Y014695D02*
X006902Y014695D01*
X006902Y014782D02*
X006714Y014782D01*
X003452Y019237D02*
X003264Y019237D01*
X003452Y019237D02*
X003452Y018971D01*
X003264Y018971D01*
X003264Y019237D01*
X003264Y019058D02*
X003452Y019058D01*
X003452Y019145D02*
X003264Y019145D01*
X003264Y019232D02*
X003452Y019232D01*
X002940Y019237D02*
X002752Y019237D01*
X002940Y019237D02*
X002940Y018971D01*
X002752Y018971D01*
X002752Y019237D01*
X002752Y019058D02*
X002940Y019058D01*
X002940Y019145D02*
X002752Y019145D01*
X002752Y019232D02*
X002940Y019232D01*
X002502Y019237D02*
X002314Y019237D01*
X002502Y019237D02*
X002502Y018971D01*
X002314Y018971D01*
X002314Y019237D01*
X002314Y019058D02*
X002502Y019058D01*
X002502Y019145D02*
X002314Y019145D01*
X002314Y019232D02*
X002502Y019232D01*
X001990Y019237D02*
X001802Y019237D01*
X001990Y019237D02*
X001990Y018971D01*
X001802Y018971D01*
X001802Y019237D01*
X001802Y019058D02*
X001990Y019058D01*
X001990Y019145D02*
X001802Y019145D01*
X001802Y019232D02*
X001990Y019232D01*
D13*
X007150Y017261D02*
X007150Y017047D01*
X007150Y017261D02*
X007364Y017261D01*
X007364Y017047D01*
X007150Y017047D01*
X007150Y017147D02*
X007364Y017147D01*
X007364Y017247D02*
X007150Y017247D01*
X007740Y017261D02*
X007740Y017047D01*
X007740Y017261D02*
X007954Y017261D01*
X007954Y017047D01*
X007740Y017047D01*
X007740Y017147D02*
X007954Y017147D01*
X007954Y017247D02*
X007740Y017247D01*
X008314Y016311D02*
X008314Y016097D01*
X008100Y016097D01*
X008100Y016311D01*
X008314Y016311D01*
X008314Y016197D02*
X008100Y016197D01*
X008100Y016297D02*
X008314Y016297D01*
X008904Y016311D02*
X008904Y016097D01*
X008690Y016097D01*
X008690Y016311D01*
X008904Y016311D01*
X008904Y016197D02*
X008690Y016197D01*
X008690Y016297D02*
X008904Y016297D01*
X008904Y015811D02*
X008904Y015597D01*
X008690Y015597D01*
X008690Y015811D01*
X008904Y015811D01*
X008904Y015697D02*
X008690Y015697D01*
X008690Y015797D02*
X008904Y015797D01*
X008314Y015811D02*
X008314Y015597D01*
X008100Y015597D01*
X008100Y015811D01*
X008314Y015811D01*
X008314Y015697D02*
X008100Y015697D01*
X008100Y015797D02*
X008314Y015797D01*
X008545Y003960D02*
X008759Y003960D01*
X008545Y003960D02*
X008545Y004214D01*
X008759Y004214D01*
X008759Y003960D01*
X008759Y004060D02*
X008545Y004060D01*
X008545Y004160D02*
X008759Y004160D01*
X008919Y003134D02*
X009133Y003134D01*
X008919Y003134D02*
X008919Y003388D01*
X009133Y003388D01*
X009133Y003134D01*
X009133Y003234D02*
X008919Y003234D01*
X008919Y003334D02*
X009133Y003334D01*
X008385Y003134D02*
X008171Y003134D01*
X008171Y003388D01*
X008385Y003388D01*
X008385Y003134D01*
X008385Y003234D02*
X008171Y003234D01*
X008171Y003334D02*
X008385Y003334D01*
X007433Y003134D02*
X007219Y003134D01*
X007219Y003388D01*
X007433Y003388D01*
X007433Y003134D01*
X007433Y003234D02*
X007219Y003234D01*
X007219Y003334D02*
X007433Y003334D01*
X007059Y003960D02*
X006845Y003960D01*
X006845Y004214D01*
X007059Y004214D01*
X007059Y003960D01*
X007059Y004060D02*
X006845Y004060D01*
X006845Y004160D02*
X007059Y004160D01*
X006685Y003134D02*
X006471Y003134D01*
X006471Y003388D01*
X006685Y003388D01*
X006685Y003134D01*
X006685Y003234D02*
X006471Y003234D01*
X006471Y003334D02*
X006685Y003334D01*
D14*
X006513Y001535D02*
X006245Y001535D01*
X006245Y001803D01*
X006513Y001803D01*
X006513Y001535D01*
X006513Y001660D02*
X006245Y001660D01*
X006245Y001785D02*
X006513Y001785D01*
X006513Y000905D02*
X006245Y000905D01*
X006245Y001173D01*
X006513Y001173D01*
X006513Y000905D01*
X006513Y001030D02*
X006245Y001030D01*
X006245Y001155D02*
X006513Y001155D01*
X004859Y000905D02*
X004591Y000905D01*
X004591Y001173D01*
X004859Y001173D01*
X004859Y000905D01*
X004859Y001030D02*
X004591Y001030D01*
X004591Y001155D02*
X004859Y001155D01*
X004859Y001535D02*
X004591Y001535D01*
X004591Y001803D01*
X004859Y001803D01*
X004859Y001535D01*
X004859Y001660D02*
X004591Y001660D01*
X004591Y001785D02*
X004859Y001785D01*
X007054Y005588D02*
X007728Y005588D01*
X007728Y005320D01*
X007054Y005320D01*
X007054Y005588D01*
X007054Y005445D02*
X007728Y005445D01*
X007728Y005570D02*
X007054Y005570D01*
X008376Y005588D02*
X009050Y005588D01*
X009050Y005320D01*
X008376Y005320D01*
X008376Y005588D01*
X008376Y005445D02*
X009050Y005445D01*
X009050Y005570D02*
X008376Y005570D01*
X009454Y005588D02*
X010128Y005588D01*
X010128Y005320D01*
X009454Y005320D01*
X009454Y005588D01*
X009454Y005445D02*
X010128Y005445D01*
X010128Y005570D02*
X009454Y005570D01*
X010776Y005588D02*
X011450Y005588D01*
X011450Y005320D01*
X010776Y005320D01*
X010776Y005588D01*
X010776Y005445D02*
X011450Y005445D01*
X011450Y005570D02*
X010776Y005570D01*
X010776Y003788D02*
X011450Y003788D01*
X011450Y003520D01*
X010776Y003520D01*
X010776Y003788D01*
X010776Y003645D02*
X011450Y003645D01*
X011450Y003770D02*
X010776Y003770D01*
X010128Y003788D02*
X009454Y003788D01*
X010128Y003788D02*
X010128Y003520D01*
X009454Y003520D01*
X009454Y003788D01*
X009454Y003645D02*
X010128Y003645D01*
X010128Y003770D02*
X009454Y003770D01*
X007610Y007509D02*
X007342Y007509D01*
X007342Y007933D01*
X007610Y007933D01*
X007610Y007509D01*
X007610Y007634D02*
X007342Y007634D01*
X007342Y007759D02*
X007610Y007759D01*
X007610Y007884D02*
X007342Y007884D01*
X006862Y007509D02*
X006594Y007509D01*
X006594Y007933D01*
X006862Y007933D01*
X006862Y007509D01*
X006862Y007634D02*
X006594Y007634D01*
X006594Y007759D02*
X006862Y007759D01*
X006862Y007884D02*
X006594Y007884D01*
X006968Y008375D02*
X007236Y008375D01*
X006968Y008375D02*
X006968Y008799D01*
X007236Y008799D01*
X007236Y008375D01*
X007236Y008500D02*
X006968Y008500D01*
X006968Y008625D02*
X007236Y008625D01*
X007236Y008750D02*
X006968Y008750D01*
X006968Y009533D02*
X007236Y009533D01*
X007236Y009109D01*
X006968Y009109D01*
X006968Y009533D01*
X006968Y009234D02*
X007236Y009234D01*
X007236Y009359D02*
X006968Y009359D01*
X006968Y009484D02*
X007236Y009484D01*
X007342Y010399D02*
X007610Y010399D01*
X007610Y009975D01*
X007342Y009975D01*
X007342Y010399D01*
X007342Y010100D02*
X007610Y010100D01*
X007610Y010225D02*
X007342Y010225D01*
X007342Y010350D02*
X007610Y010350D01*
X006862Y010399D02*
X006594Y010399D01*
X006862Y010399D02*
X006862Y009975D01*
X006594Y009975D01*
X006594Y010399D01*
X006594Y010100D02*
X006862Y010100D01*
X006862Y010225D02*
X006594Y010225D01*
X006594Y010350D02*
X006862Y010350D01*
X005351Y015027D02*
X005351Y015295D01*
X005351Y015027D02*
X003667Y015027D01*
X003667Y015295D01*
X005351Y015295D01*
X005351Y015152D02*
X003667Y015152D01*
X003667Y015277D02*
X005351Y015277D01*
X005351Y015814D02*
X005351Y016082D01*
X005351Y015814D02*
X003667Y015814D01*
X003667Y016082D01*
X005351Y016082D01*
X005351Y015939D02*
X003667Y015939D01*
X003667Y016064D02*
X005351Y016064D01*
X018491Y016323D02*
X018759Y016323D01*
X018759Y016055D01*
X018491Y016055D01*
X018491Y016323D01*
X018491Y016180D02*
X018759Y016180D01*
X018759Y016305D02*
X018491Y016305D01*
X018491Y016953D02*
X018759Y016953D01*
X018759Y016685D01*
X018491Y016685D01*
X018491Y016953D01*
X018491Y016810D02*
X018759Y016810D01*
X018759Y016935D02*
X018491Y016935D01*
X020145Y016953D02*
X020413Y016953D01*
X020413Y016685D01*
X020145Y016685D01*
X020145Y016953D01*
X020145Y016810D02*
X020413Y016810D01*
X020413Y016935D02*
X020145Y016935D01*
X020145Y016323D02*
X020413Y016323D01*
X020413Y016055D01*
X020145Y016055D01*
X020145Y016323D01*
X020145Y016180D02*
X020413Y016180D01*
X020413Y016305D02*
X020145Y016305D01*
D15*
X003030Y017107D02*
X001894Y017107D01*
X003030Y017107D02*
X003030Y016679D01*
X001894Y016679D01*
X001894Y017107D01*
X001894Y016880D02*
X003030Y016880D01*
X003030Y017081D02*
X001894Y017081D01*
X001894Y014430D02*
X003030Y014430D01*
X003030Y014002D01*
X001894Y014002D01*
X001894Y014430D01*
X001894Y014203D02*
X003030Y014203D01*
X003030Y014404D02*
X001894Y014404D01*
D16*
X011608Y009901D02*
X011608Y009821D01*
X011608Y009901D02*
X012042Y009901D01*
X012042Y009821D01*
X011608Y009821D01*
X011608Y009858D02*
X012042Y009858D01*
X012042Y009895D02*
X011608Y009895D01*
X011608Y009704D02*
X011608Y009624D01*
X011608Y009704D02*
X012042Y009704D01*
X012042Y009624D01*
X011608Y009624D01*
X011608Y009661D02*
X012042Y009661D01*
X012042Y009698D02*
X011608Y009698D01*
X011608Y009507D02*
X011608Y009427D01*
X011608Y009507D02*
X012042Y009507D01*
X012042Y009427D01*
X011608Y009427D01*
X011608Y009464D02*
X012042Y009464D01*
X012042Y009501D02*
X011608Y009501D01*
X011608Y009310D02*
X011608Y009230D01*
X011608Y009310D02*
X012042Y009310D01*
X012042Y009230D01*
X011608Y009230D01*
X011608Y009267D02*
X012042Y009267D01*
X012042Y009304D02*
X011608Y009304D01*
X011608Y009113D02*
X011608Y009033D01*
X011608Y009113D02*
X012042Y009113D01*
X012042Y009033D01*
X011608Y009033D01*
X011608Y009070D02*
X012042Y009070D01*
X012042Y009107D02*
X011608Y009107D01*
X011608Y008916D02*
X011608Y008836D01*
X011608Y008916D02*
X012042Y008916D01*
X012042Y008836D01*
X011608Y008836D01*
X011608Y008873D02*
X012042Y008873D01*
X012042Y008910D02*
X011608Y008910D01*
X011608Y008720D02*
X011608Y008640D01*
X011608Y008720D02*
X012042Y008720D01*
X012042Y008640D01*
X011608Y008640D01*
X011608Y008677D02*
X012042Y008677D01*
X012042Y008714D02*
X011608Y008714D01*
X011608Y008523D02*
X011608Y008443D01*
X011608Y008523D02*
X012042Y008523D01*
X012042Y008443D01*
X011608Y008443D01*
X011608Y008480D02*
X012042Y008480D01*
X012042Y008517D02*
X011608Y008517D01*
X011608Y008326D02*
X011608Y008246D01*
X011608Y008326D02*
X012042Y008326D01*
X012042Y008246D01*
X011608Y008246D01*
X011608Y008283D02*
X012042Y008283D01*
X012042Y008320D02*
X011608Y008320D01*
X011608Y008129D02*
X011608Y008049D01*
X011608Y008129D02*
X012042Y008129D01*
X012042Y008049D01*
X011608Y008049D01*
X011608Y008086D02*
X012042Y008086D01*
X012042Y008123D02*
X011608Y008123D01*
X011608Y007932D02*
X011608Y007852D01*
X011608Y007932D02*
X012042Y007932D01*
X012042Y007852D01*
X011608Y007852D01*
X011608Y007889D02*
X012042Y007889D01*
X012042Y007926D02*
X011608Y007926D01*
X011608Y007735D02*
X011608Y007655D01*
X011608Y007735D02*
X012042Y007735D01*
X012042Y007655D01*
X011608Y007655D01*
X011608Y007692D02*
X012042Y007692D01*
X012042Y007729D02*
X011608Y007729D01*
X011608Y007539D02*
X011608Y007459D01*
X011608Y007539D02*
X012042Y007539D01*
X012042Y007459D01*
X011608Y007459D01*
X011608Y007496D02*
X012042Y007496D01*
X012042Y007533D02*
X011608Y007533D01*
X011608Y007342D02*
X011608Y007262D01*
X011608Y007342D02*
X012042Y007342D01*
X012042Y007262D01*
X011608Y007262D01*
X011608Y007299D02*
X012042Y007299D01*
X012042Y007336D02*
X011608Y007336D01*
X011608Y007145D02*
X011608Y007065D01*
X011608Y007145D02*
X012042Y007145D01*
X012042Y007065D01*
X011608Y007065D01*
X011608Y007102D02*
X012042Y007102D01*
X012042Y007139D02*
X011608Y007139D01*
X011608Y006948D02*
X011608Y006868D01*
X011608Y006948D02*
X012042Y006948D01*
X012042Y006868D01*
X011608Y006868D01*
X011608Y006905D02*
X012042Y006905D01*
X012042Y006942D02*
X011608Y006942D01*
X012646Y005830D02*
X012726Y005830D01*
X012646Y005830D02*
X012646Y006264D01*
X012726Y006264D01*
X012726Y005830D01*
X012726Y005867D02*
X012646Y005867D01*
X012646Y005904D02*
X012726Y005904D01*
X012726Y005941D02*
X012646Y005941D01*
X012646Y005978D02*
X012726Y005978D01*
X012726Y006015D02*
X012646Y006015D01*
X012646Y006052D02*
X012726Y006052D01*
X012726Y006089D02*
X012646Y006089D01*
X012646Y006126D02*
X012726Y006126D01*
X012726Y006163D02*
X012646Y006163D01*
X012646Y006200D02*
X012726Y006200D01*
X012726Y006237D02*
X012646Y006237D01*
X012843Y005830D02*
X012923Y005830D01*
X012843Y005830D02*
X012843Y006264D01*
X012923Y006264D01*
X012923Y005830D01*
X012923Y005867D02*
X012843Y005867D01*
X012843Y005904D02*
X012923Y005904D01*
X012923Y005941D02*
X012843Y005941D01*
X012843Y005978D02*
X012923Y005978D01*
X012923Y006015D02*
X012843Y006015D01*
X012843Y006052D02*
X012923Y006052D01*
X012923Y006089D02*
X012843Y006089D01*
X012843Y006126D02*
X012923Y006126D01*
X012923Y006163D02*
X012843Y006163D01*
X012843Y006200D02*
X012923Y006200D01*
X012923Y006237D02*
X012843Y006237D01*
X013039Y005830D02*
X013119Y005830D01*
X013039Y005830D02*
X013039Y006264D01*
X013119Y006264D01*
X013119Y005830D01*
X013119Y005867D02*
X013039Y005867D01*
X013039Y005904D02*
X013119Y005904D01*
X013119Y005941D02*
X013039Y005941D01*
X013039Y005978D02*
X013119Y005978D01*
X013119Y006015D02*
X013039Y006015D01*
X013039Y006052D02*
X013119Y006052D01*
X013119Y006089D02*
X013039Y006089D01*
X013039Y006126D02*
X013119Y006126D01*
X013119Y006163D02*
X013039Y006163D01*
X013039Y006200D02*
X013119Y006200D01*
X013119Y006237D02*
X013039Y006237D01*
X013236Y005830D02*
X013316Y005830D01*
X013236Y005830D02*
X013236Y006264D01*
X013316Y006264D01*
X013316Y005830D01*
X013316Y005867D02*
X013236Y005867D01*
X013236Y005904D02*
X013316Y005904D01*
X013316Y005941D02*
X013236Y005941D01*
X013236Y005978D02*
X013316Y005978D01*
X013316Y006015D02*
X013236Y006015D01*
X013236Y006052D02*
X013316Y006052D01*
X013316Y006089D02*
X013236Y006089D01*
X013236Y006126D02*
X013316Y006126D01*
X013316Y006163D02*
X013236Y006163D01*
X013236Y006200D02*
X013316Y006200D01*
X013316Y006237D02*
X013236Y006237D01*
X013433Y005830D02*
X013513Y005830D01*
X013433Y005830D02*
X013433Y006264D01*
X013513Y006264D01*
X013513Y005830D01*
X013513Y005867D02*
X013433Y005867D01*
X013433Y005904D02*
X013513Y005904D01*
X013513Y005941D02*
X013433Y005941D01*
X013433Y005978D02*
X013513Y005978D01*
X013513Y006015D02*
X013433Y006015D01*
X013433Y006052D02*
X013513Y006052D01*
X013513Y006089D02*
X013433Y006089D01*
X013433Y006126D02*
X013513Y006126D01*
X013513Y006163D02*
X013433Y006163D01*
X013433Y006200D02*
X013513Y006200D01*
X013513Y006237D02*
X013433Y006237D01*
X013630Y005830D02*
X013710Y005830D01*
X013630Y005830D02*
X013630Y006264D01*
X013710Y006264D01*
X013710Y005830D01*
X013710Y005867D02*
X013630Y005867D01*
X013630Y005904D02*
X013710Y005904D01*
X013710Y005941D02*
X013630Y005941D01*
X013630Y005978D02*
X013710Y005978D01*
X013710Y006015D02*
X013630Y006015D01*
X013630Y006052D02*
X013710Y006052D01*
X013710Y006089D02*
X013630Y006089D01*
X013630Y006126D02*
X013710Y006126D01*
X013710Y006163D02*
X013630Y006163D01*
X013630Y006200D02*
X013710Y006200D01*
X013710Y006237D02*
X013630Y006237D01*
X013827Y005830D02*
X013907Y005830D01*
X013827Y005830D02*
X013827Y006264D01*
X013907Y006264D01*
X013907Y005830D01*
X013907Y005867D02*
X013827Y005867D01*
X013827Y005904D02*
X013907Y005904D01*
X013907Y005941D02*
X013827Y005941D01*
X013827Y005978D02*
X013907Y005978D01*
X013907Y006015D02*
X013827Y006015D01*
X013827Y006052D02*
X013907Y006052D01*
X013907Y006089D02*
X013827Y006089D01*
X013827Y006126D02*
X013907Y006126D01*
X013907Y006163D02*
X013827Y006163D01*
X013827Y006200D02*
X013907Y006200D01*
X013907Y006237D02*
X013827Y006237D01*
X014024Y005830D02*
X014104Y005830D01*
X014024Y005830D02*
X014024Y006264D01*
X014104Y006264D01*
X014104Y005830D01*
X014104Y005867D02*
X014024Y005867D01*
X014024Y005904D02*
X014104Y005904D01*
X014104Y005941D02*
X014024Y005941D01*
X014024Y005978D02*
X014104Y005978D01*
X014104Y006015D02*
X014024Y006015D01*
X014024Y006052D02*
X014104Y006052D01*
X014104Y006089D02*
X014024Y006089D01*
X014024Y006126D02*
X014104Y006126D01*
X014104Y006163D02*
X014024Y006163D01*
X014024Y006200D02*
X014104Y006200D01*
X014104Y006237D02*
X014024Y006237D01*
X014221Y005830D02*
X014301Y005830D01*
X014221Y005830D02*
X014221Y006264D01*
X014301Y006264D01*
X014301Y005830D01*
X014301Y005867D02*
X014221Y005867D01*
X014221Y005904D02*
X014301Y005904D01*
X014301Y005941D02*
X014221Y005941D01*
X014221Y005978D02*
X014301Y005978D01*
X014301Y006015D02*
X014221Y006015D01*
X014221Y006052D02*
X014301Y006052D01*
X014301Y006089D02*
X014221Y006089D01*
X014221Y006126D02*
X014301Y006126D01*
X014301Y006163D02*
X014221Y006163D01*
X014221Y006200D02*
X014301Y006200D01*
X014301Y006237D02*
X014221Y006237D01*
X014417Y005830D02*
X014497Y005830D01*
X014417Y005830D02*
X014417Y006264D01*
X014497Y006264D01*
X014497Y005830D01*
X014497Y005867D02*
X014417Y005867D01*
X014417Y005904D02*
X014497Y005904D01*
X014497Y005941D02*
X014417Y005941D01*
X014417Y005978D02*
X014497Y005978D01*
X014497Y006015D02*
X014417Y006015D01*
X014417Y006052D02*
X014497Y006052D01*
X014497Y006089D02*
X014417Y006089D01*
X014417Y006126D02*
X014497Y006126D01*
X014497Y006163D02*
X014417Y006163D01*
X014417Y006200D02*
X014497Y006200D01*
X014497Y006237D02*
X014417Y006237D01*
X014614Y005830D02*
X014694Y005830D01*
X014614Y005830D02*
X014614Y006264D01*
X014694Y006264D01*
X014694Y005830D01*
X014694Y005867D02*
X014614Y005867D01*
X014614Y005904D02*
X014694Y005904D01*
X014694Y005941D02*
X014614Y005941D01*
X014614Y005978D02*
X014694Y005978D01*
X014694Y006015D02*
X014614Y006015D01*
X014614Y006052D02*
X014694Y006052D01*
X014694Y006089D02*
X014614Y006089D01*
X014614Y006126D02*
X014694Y006126D01*
X014694Y006163D02*
X014614Y006163D01*
X014614Y006200D02*
X014694Y006200D01*
X014694Y006237D02*
X014614Y006237D01*
X014811Y005830D02*
X014891Y005830D01*
X014811Y005830D02*
X014811Y006264D01*
X014891Y006264D01*
X014891Y005830D01*
X014891Y005867D02*
X014811Y005867D01*
X014811Y005904D02*
X014891Y005904D01*
X014891Y005941D02*
X014811Y005941D01*
X014811Y005978D02*
X014891Y005978D01*
X014891Y006015D02*
X014811Y006015D01*
X014811Y006052D02*
X014891Y006052D01*
X014891Y006089D02*
X014811Y006089D01*
X014811Y006126D02*
X014891Y006126D01*
X014891Y006163D02*
X014811Y006163D01*
X014811Y006200D02*
X014891Y006200D01*
X014891Y006237D02*
X014811Y006237D01*
X015008Y005830D02*
X015088Y005830D01*
X015008Y005830D02*
X015008Y006264D01*
X015088Y006264D01*
X015088Y005830D01*
X015088Y005867D02*
X015008Y005867D01*
X015008Y005904D02*
X015088Y005904D01*
X015088Y005941D02*
X015008Y005941D01*
X015008Y005978D02*
X015088Y005978D01*
X015088Y006015D02*
X015008Y006015D01*
X015008Y006052D02*
X015088Y006052D01*
X015088Y006089D02*
X015008Y006089D01*
X015008Y006126D02*
X015088Y006126D01*
X015088Y006163D02*
X015008Y006163D01*
X015008Y006200D02*
X015088Y006200D01*
X015088Y006237D02*
X015008Y006237D01*
X015205Y005830D02*
X015285Y005830D01*
X015205Y005830D02*
X015205Y006264D01*
X015285Y006264D01*
X015285Y005830D01*
X015285Y005867D02*
X015205Y005867D01*
X015205Y005904D02*
X015285Y005904D01*
X015285Y005941D02*
X015205Y005941D01*
X015205Y005978D02*
X015285Y005978D01*
X015285Y006015D02*
X015205Y006015D01*
X015205Y006052D02*
X015285Y006052D01*
X015285Y006089D02*
X015205Y006089D01*
X015205Y006126D02*
X015285Y006126D01*
X015285Y006163D02*
X015205Y006163D01*
X015205Y006200D02*
X015285Y006200D01*
X015285Y006237D02*
X015205Y006237D01*
X015402Y005830D02*
X015482Y005830D01*
X015402Y005830D02*
X015402Y006264D01*
X015482Y006264D01*
X015482Y005830D01*
X015482Y005867D02*
X015402Y005867D01*
X015402Y005904D02*
X015482Y005904D01*
X015482Y005941D02*
X015402Y005941D01*
X015402Y005978D02*
X015482Y005978D01*
X015482Y006015D02*
X015402Y006015D01*
X015402Y006052D02*
X015482Y006052D01*
X015482Y006089D02*
X015402Y006089D01*
X015402Y006126D02*
X015482Y006126D01*
X015482Y006163D02*
X015402Y006163D01*
X015402Y006200D02*
X015482Y006200D01*
X015482Y006237D02*
X015402Y006237D01*
X015599Y005830D02*
X015679Y005830D01*
X015599Y005830D02*
X015599Y006264D01*
X015679Y006264D01*
X015679Y005830D01*
X015679Y005867D02*
X015599Y005867D01*
X015599Y005904D02*
X015679Y005904D01*
X015679Y005941D02*
X015599Y005941D01*
X015599Y005978D02*
X015679Y005978D01*
X015679Y006015D02*
X015599Y006015D01*
X015599Y006052D02*
X015679Y006052D01*
X015679Y006089D02*
X015599Y006089D01*
X015599Y006126D02*
X015679Y006126D01*
X015679Y006163D02*
X015599Y006163D01*
X015599Y006200D02*
X015679Y006200D01*
X015679Y006237D02*
X015599Y006237D01*
X016706Y006868D02*
X016706Y006948D01*
X016706Y006868D02*
X016272Y006868D01*
X016272Y006948D01*
X016706Y006948D01*
X016706Y006905D02*
X016272Y006905D01*
X016272Y006942D02*
X016706Y006942D01*
X016706Y007065D02*
X016706Y007145D01*
X016706Y007065D02*
X016272Y007065D01*
X016272Y007145D01*
X016706Y007145D01*
X016706Y007102D02*
X016272Y007102D01*
X016272Y007139D02*
X016706Y007139D01*
X016706Y007262D02*
X016706Y007342D01*
X016706Y007262D02*
X016272Y007262D01*
X016272Y007342D01*
X016706Y007342D01*
X016706Y007299D02*
X016272Y007299D01*
X016272Y007336D02*
X016706Y007336D01*
X016706Y007459D02*
X016706Y007539D01*
X016706Y007459D02*
X016272Y007459D01*
X016272Y007539D01*
X016706Y007539D01*
X016706Y007496D02*
X016272Y007496D01*
X016272Y007533D02*
X016706Y007533D01*
X016706Y007655D02*
X016706Y007735D01*
X016706Y007655D02*
X016272Y007655D01*
X016272Y007735D01*
X016706Y007735D01*
X016706Y007692D02*
X016272Y007692D01*
X016272Y007729D02*
X016706Y007729D01*
X016706Y007852D02*
X016706Y007932D01*
X016706Y007852D02*
X016272Y007852D01*
X016272Y007932D01*
X016706Y007932D01*
X016706Y007889D02*
X016272Y007889D01*
X016272Y007926D02*
X016706Y007926D01*
X016706Y008049D02*
X016706Y008129D01*
X016706Y008049D02*
X016272Y008049D01*
X016272Y008129D01*
X016706Y008129D01*
X016706Y008086D02*
X016272Y008086D01*
X016272Y008123D02*
X016706Y008123D01*
X016706Y008246D02*
X016706Y008326D01*
X016706Y008246D02*
X016272Y008246D01*
X016272Y008326D01*
X016706Y008326D01*
X016706Y008283D02*
X016272Y008283D01*
X016272Y008320D02*
X016706Y008320D01*
X016706Y008443D02*
X016706Y008523D01*
X016706Y008443D02*
X016272Y008443D01*
X016272Y008523D01*
X016706Y008523D01*
X016706Y008480D02*
X016272Y008480D01*
X016272Y008517D02*
X016706Y008517D01*
X016706Y008640D02*
X016706Y008720D01*
X016706Y008640D02*
X016272Y008640D01*
X016272Y008720D01*
X016706Y008720D01*
X016706Y008677D02*
X016272Y008677D01*
X016272Y008714D02*
X016706Y008714D01*
X016706Y008836D02*
X016706Y008916D01*
X016706Y008836D02*
X016272Y008836D01*
X016272Y008916D01*
X016706Y008916D01*
X016706Y008873D02*
X016272Y008873D01*
X016272Y008910D02*
X016706Y008910D01*
X016706Y009033D02*
X016706Y009113D01*
X016706Y009033D02*
X016272Y009033D01*
X016272Y009113D01*
X016706Y009113D01*
X016706Y009070D02*
X016272Y009070D01*
X016272Y009107D02*
X016706Y009107D01*
X016706Y009230D02*
X016706Y009310D01*
X016706Y009230D02*
X016272Y009230D01*
X016272Y009310D01*
X016706Y009310D01*
X016706Y009267D02*
X016272Y009267D01*
X016272Y009304D02*
X016706Y009304D01*
X016706Y009427D02*
X016706Y009507D01*
X016706Y009427D02*
X016272Y009427D01*
X016272Y009507D01*
X016706Y009507D01*
X016706Y009464D02*
X016272Y009464D01*
X016272Y009501D02*
X016706Y009501D01*
X016706Y009624D02*
X016706Y009704D01*
X016706Y009624D02*
X016272Y009624D01*
X016272Y009704D01*
X016706Y009704D01*
X016706Y009661D02*
X016272Y009661D01*
X016272Y009698D02*
X016706Y009698D01*
X016706Y009821D02*
X016706Y009901D01*
X016706Y009821D02*
X016272Y009821D01*
X016272Y009901D01*
X016706Y009901D01*
X016706Y009858D02*
X016272Y009858D01*
X016272Y009895D02*
X016706Y009895D01*
X015679Y010918D02*
X015599Y010918D01*
X015679Y010918D02*
X015679Y010484D01*
X015599Y010484D01*
X015599Y010918D01*
X015599Y010521D02*
X015679Y010521D01*
X015679Y010558D02*
X015599Y010558D01*
X015599Y010595D02*
X015679Y010595D01*
X015679Y010632D02*
X015599Y010632D01*
X015599Y010669D02*
X015679Y010669D01*
X015679Y010706D02*
X015599Y010706D01*
X015599Y010743D02*
X015679Y010743D01*
X015679Y010780D02*
X015599Y010780D01*
X015599Y010817D02*
X015679Y010817D01*
X015679Y010854D02*
X015599Y010854D01*
X015599Y010891D02*
X015679Y010891D01*
X015482Y010918D02*
X015402Y010918D01*
X015482Y010918D02*
X015482Y010484D01*
X015402Y010484D01*
X015402Y010918D01*
X015402Y010521D02*
X015482Y010521D01*
X015482Y010558D02*
X015402Y010558D01*
X015402Y010595D02*
X015482Y010595D01*
X015482Y010632D02*
X015402Y010632D01*
X015402Y010669D02*
X015482Y010669D01*
X015482Y010706D02*
X015402Y010706D01*
X015402Y010743D02*
X015482Y010743D01*
X015482Y010780D02*
X015402Y010780D01*
X015402Y010817D02*
X015482Y010817D01*
X015482Y010854D02*
X015402Y010854D01*
X015402Y010891D02*
X015482Y010891D01*
X015285Y010918D02*
X015205Y010918D01*
X015285Y010918D02*
X015285Y010484D01*
X015205Y010484D01*
X015205Y010918D01*
X015205Y010521D02*
X015285Y010521D01*
X015285Y010558D02*
X015205Y010558D01*
X015205Y010595D02*
X015285Y010595D01*
X015285Y010632D02*
X015205Y010632D01*
X015205Y010669D02*
X015285Y010669D01*
X015285Y010706D02*
X015205Y010706D01*
X015205Y010743D02*
X015285Y010743D01*
X015285Y010780D02*
X015205Y010780D01*
X015205Y010817D02*
X015285Y010817D01*
X015285Y010854D02*
X015205Y010854D01*
X015205Y010891D02*
X015285Y010891D01*
X015088Y010918D02*
X015008Y010918D01*
X015088Y010918D02*
X015088Y010484D01*
X015008Y010484D01*
X015008Y010918D01*
X015008Y010521D02*
X015088Y010521D01*
X015088Y010558D02*
X015008Y010558D01*
X015008Y010595D02*
X015088Y010595D01*
X015088Y010632D02*
X015008Y010632D01*
X015008Y010669D02*
X015088Y010669D01*
X015088Y010706D02*
X015008Y010706D01*
X015008Y010743D02*
X015088Y010743D01*
X015088Y010780D02*
X015008Y010780D01*
X015008Y010817D02*
X015088Y010817D01*
X015088Y010854D02*
X015008Y010854D01*
X015008Y010891D02*
X015088Y010891D01*
X014891Y010918D02*
X014811Y010918D01*
X014891Y010918D02*
X014891Y010484D01*
X014811Y010484D01*
X014811Y010918D01*
X014811Y010521D02*
X014891Y010521D01*
X014891Y010558D02*
X014811Y010558D01*
X014811Y010595D02*
X014891Y010595D01*
X014891Y010632D02*
X014811Y010632D01*
X014811Y010669D02*
X014891Y010669D01*
X014891Y010706D02*
X014811Y010706D01*
X014811Y010743D02*
X014891Y010743D01*
X014891Y010780D02*
X014811Y010780D01*
X014811Y010817D02*
X014891Y010817D01*
X014891Y010854D02*
X014811Y010854D01*
X014811Y010891D02*
X014891Y010891D01*
X014694Y010918D02*
X014614Y010918D01*
X014694Y010918D02*
X014694Y010484D01*
X014614Y010484D01*
X014614Y010918D01*
X014614Y010521D02*
X014694Y010521D01*
X014694Y010558D02*
X014614Y010558D01*
X014614Y010595D02*
X014694Y010595D01*
X014694Y010632D02*
X014614Y010632D01*
X014614Y010669D02*
X014694Y010669D01*
X014694Y010706D02*
X014614Y010706D01*
X014614Y010743D02*
X014694Y010743D01*
X014694Y010780D02*
X014614Y010780D01*
X014614Y010817D02*
X014694Y010817D01*
X014694Y010854D02*
X014614Y010854D01*
X014614Y010891D02*
X014694Y010891D01*
X014497Y010918D02*
X014417Y010918D01*
X014497Y010918D02*
X014497Y010484D01*
X014417Y010484D01*
X014417Y010918D01*
X014417Y010521D02*
X014497Y010521D01*
X014497Y010558D02*
X014417Y010558D01*
X014417Y010595D02*
X014497Y010595D01*
X014497Y010632D02*
X014417Y010632D01*
X014417Y010669D02*
X014497Y010669D01*
X014497Y010706D02*
X014417Y010706D01*
X014417Y010743D02*
X014497Y010743D01*
X014497Y010780D02*
X014417Y010780D01*
X014417Y010817D02*
X014497Y010817D01*
X014497Y010854D02*
X014417Y010854D01*
X014417Y010891D02*
X014497Y010891D01*
X014301Y010918D02*
X014221Y010918D01*
X014301Y010918D02*
X014301Y010484D01*
X014221Y010484D01*
X014221Y010918D01*
X014221Y010521D02*
X014301Y010521D01*
X014301Y010558D02*
X014221Y010558D01*
X014221Y010595D02*
X014301Y010595D01*
X014301Y010632D02*
X014221Y010632D01*
X014221Y010669D02*
X014301Y010669D01*
X014301Y010706D02*
X014221Y010706D01*
X014221Y010743D02*
X014301Y010743D01*
X014301Y010780D02*
X014221Y010780D01*
X014221Y010817D02*
X014301Y010817D01*
X014301Y010854D02*
X014221Y010854D01*
X014221Y010891D02*
X014301Y010891D01*
X014104Y010918D02*
X014024Y010918D01*
X014104Y010918D02*
X014104Y010484D01*
X014024Y010484D01*
X014024Y010918D01*
X014024Y010521D02*
X014104Y010521D01*
X014104Y010558D02*
X014024Y010558D01*
X014024Y010595D02*
X014104Y010595D01*
X014104Y010632D02*
X014024Y010632D01*
X014024Y010669D02*
X014104Y010669D01*
X014104Y010706D02*
X014024Y010706D01*
X014024Y010743D02*
X014104Y010743D01*
X014104Y010780D02*
X014024Y010780D01*
X014024Y010817D02*
X014104Y010817D01*
X014104Y010854D02*
X014024Y010854D01*
X014024Y010891D02*
X014104Y010891D01*
X013907Y010918D02*
X013827Y010918D01*
X013907Y010918D02*
X013907Y010484D01*
X013827Y010484D01*
X013827Y010918D01*
X013827Y010521D02*
X013907Y010521D01*
X013907Y010558D02*
X013827Y010558D01*
X013827Y010595D02*
X013907Y010595D01*
X013907Y010632D02*
X013827Y010632D01*
X013827Y010669D02*
X013907Y010669D01*
X013907Y010706D02*
X013827Y010706D01*
X013827Y010743D02*
X013907Y010743D01*
X013907Y010780D02*
X013827Y010780D01*
X013827Y010817D02*
X013907Y010817D01*
X013907Y010854D02*
X013827Y010854D01*
X013827Y010891D02*
X013907Y010891D01*
X013710Y010918D02*
X013630Y010918D01*
X013710Y010918D02*
X013710Y010484D01*
X013630Y010484D01*
X013630Y010918D01*
X013630Y010521D02*
X013710Y010521D01*
X013710Y010558D02*
X013630Y010558D01*
X013630Y010595D02*
X013710Y010595D01*
X013710Y010632D02*
X013630Y010632D01*
X013630Y010669D02*
X013710Y010669D01*
X013710Y010706D02*
X013630Y010706D01*
X013630Y010743D02*
X013710Y010743D01*
X013710Y010780D02*
X013630Y010780D01*
X013630Y010817D02*
X013710Y010817D01*
X013710Y010854D02*
X013630Y010854D01*
X013630Y010891D02*
X013710Y010891D01*
X013513Y010918D02*
X013433Y010918D01*
X013513Y010918D02*
X013513Y010484D01*
X013433Y010484D01*
X013433Y010918D01*
X013433Y010521D02*
X013513Y010521D01*
X013513Y010558D02*
X013433Y010558D01*
X013433Y010595D02*
X013513Y010595D01*
X013513Y010632D02*
X013433Y010632D01*
X013433Y010669D02*
X013513Y010669D01*
X013513Y010706D02*
X013433Y010706D01*
X013433Y010743D02*
X013513Y010743D01*
X013513Y010780D02*
X013433Y010780D01*
X013433Y010817D02*
X013513Y010817D01*
X013513Y010854D02*
X013433Y010854D01*
X013433Y010891D02*
X013513Y010891D01*
X013316Y010918D02*
X013236Y010918D01*
X013316Y010918D02*
X013316Y010484D01*
X013236Y010484D01*
X013236Y010918D01*
X013236Y010521D02*
X013316Y010521D01*
X013316Y010558D02*
X013236Y010558D01*
X013236Y010595D02*
X013316Y010595D01*
X013316Y010632D02*
X013236Y010632D01*
X013236Y010669D02*
X013316Y010669D01*
X013316Y010706D02*
X013236Y010706D01*
X013236Y010743D02*
X013316Y010743D01*
X013316Y010780D02*
X013236Y010780D01*
X013236Y010817D02*
X013316Y010817D01*
X013316Y010854D02*
X013236Y010854D01*
X013236Y010891D02*
X013316Y010891D01*
X013119Y010918D02*
X013039Y010918D01*
X013119Y010918D02*
X013119Y010484D01*
X013039Y010484D01*
X013039Y010918D01*
X013039Y010521D02*
X013119Y010521D01*
X013119Y010558D02*
X013039Y010558D01*
X013039Y010595D02*
X013119Y010595D01*
X013119Y010632D02*
X013039Y010632D01*
X013039Y010669D02*
X013119Y010669D01*
X013119Y010706D02*
X013039Y010706D01*
X013039Y010743D02*
X013119Y010743D01*
X013119Y010780D02*
X013039Y010780D01*
X013039Y010817D02*
X013119Y010817D01*
X013119Y010854D02*
X013039Y010854D01*
X013039Y010891D02*
X013119Y010891D01*
X012923Y010918D02*
X012843Y010918D01*
X012923Y010918D02*
X012923Y010484D01*
X012843Y010484D01*
X012843Y010918D01*
X012843Y010521D02*
X012923Y010521D01*
X012923Y010558D02*
X012843Y010558D01*
X012843Y010595D02*
X012923Y010595D01*
X012923Y010632D02*
X012843Y010632D01*
X012843Y010669D02*
X012923Y010669D01*
X012923Y010706D02*
X012843Y010706D01*
X012843Y010743D02*
X012923Y010743D01*
X012923Y010780D02*
X012843Y010780D01*
X012843Y010817D02*
X012923Y010817D01*
X012923Y010854D02*
X012843Y010854D01*
X012843Y010891D02*
X012923Y010891D01*
X012726Y010918D02*
X012646Y010918D01*
X012726Y010918D02*
X012726Y010484D01*
X012646Y010484D01*
X012646Y010918D01*
X012646Y010521D02*
X012726Y010521D01*
X012726Y010558D02*
X012646Y010558D01*
X012646Y010595D02*
X012726Y010595D01*
X012726Y010632D02*
X012646Y010632D01*
X012646Y010669D02*
X012726Y010669D01*
X012726Y010706D02*
X012646Y010706D01*
X012646Y010743D02*
X012726Y010743D01*
X012726Y010780D02*
X012646Y010780D01*
X012646Y010817D02*
X012726Y010817D01*
X012726Y010854D02*
X012646Y010854D01*
X012646Y010891D02*
X012726Y010891D01*
D17*
X012379Y004534D02*
X011769Y004534D01*
X012379Y004534D02*
X012379Y004240D01*
X011769Y004240D01*
X011769Y004534D01*
X011769Y004378D02*
X012379Y004378D01*
X012379Y004516D02*
X011769Y004516D01*
X011769Y003629D02*
X012379Y003629D01*
X012379Y003335D01*
X011769Y003335D01*
X011769Y003629D01*
X011769Y003473D02*
X012379Y003473D01*
X012379Y003611D02*
X011769Y003611D01*
X013225Y003629D02*
X013835Y003629D01*
X013835Y003335D01*
X013225Y003335D01*
X013225Y003629D01*
X013225Y003473D02*
X013835Y003473D01*
X013835Y003611D02*
X013225Y003611D01*
X013225Y004534D02*
X013835Y004534D01*
X013835Y004240D01*
X013225Y004240D01*
X013225Y004534D01*
X013225Y004378D02*
X013835Y004378D01*
X013835Y004516D02*
X013225Y004516D01*
D18*
X004997Y010057D02*
X004075Y010057D01*
X004075Y010191D01*
X004997Y010191D01*
X004997Y010057D01*
X004997Y010119D02*
X004075Y010119D01*
X004075Y010181D02*
X004997Y010181D01*
X004997Y010372D02*
X004075Y010372D01*
X004075Y010506D01*
X004997Y010506D01*
X004997Y010372D01*
X004997Y010434D02*
X004075Y010434D01*
X004075Y010496D02*
X004997Y010496D01*
X004997Y010687D02*
X004075Y010687D01*
X004075Y010821D01*
X004997Y010821D01*
X004997Y010687D01*
X004997Y010749D02*
X004075Y010749D01*
X004075Y010811D02*
X004997Y010811D01*
X004997Y011002D02*
X004075Y011002D01*
X004075Y011136D01*
X004997Y011136D01*
X004997Y011002D01*
X004997Y011064D02*
X004075Y011064D01*
X004075Y011126D02*
X004997Y011126D01*
X004997Y011317D02*
X004075Y011317D01*
X004075Y011451D01*
X004997Y011451D01*
X004997Y011317D01*
X004997Y011379D02*
X004075Y011379D01*
X004075Y011441D02*
X004997Y011441D01*
D19*
X004902Y012259D02*
X004170Y012259D01*
X004170Y012793D01*
X004902Y012793D01*
X004902Y012259D01*
X004902Y012510D02*
X004170Y012510D01*
X004170Y012761D02*
X004902Y012761D01*
X002737Y012259D02*
X002005Y012259D01*
X002005Y012793D01*
X002737Y012793D01*
X002737Y012259D01*
X002737Y012510D02*
X002005Y012510D01*
X002005Y012761D02*
X002737Y012761D01*
X002737Y008716D02*
X002005Y008716D01*
X002005Y009250D01*
X002737Y009250D01*
X002737Y008716D01*
X002737Y008967D02*
X002005Y008967D01*
X002005Y009218D02*
X002737Y009218D01*
X004170Y008716D02*
X004902Y008716D01*
X004170Y008716D02*
X004170Y009250D01*
X004902Y009250D01*
X004902Y008716D01*
X004902Y008967D02*
X004170Y008967D01*
X004170Y009218D02*
X004902Y009218D01*
D20*
X005896Y005554D03*
X004715Y003704D03*
X003534Y005554D03*
D21*
X002182Y005054D03*
X002182Y006054D03*
X004052Y019554D03*
X005052Y019554D03*
X006052Y019554D03*
X007052Y019554D03*
X008052Y019554D03*
X009052Y019554D03*
X010052Y019554D03*
X013052Y019554D03*
X014052Y019554D03*
X015052Y019554D03*
X016052Y019554D03*
X017052Y019554D03*
X018052Y019554D03*
X019052Y019554D03*
D22*
X004543Y007915D02*
X004103Y007915D01*
X004543Y007915D02*
X004543Y007593D01*
X004103Y007593D01*
X004103Y007915D01*
X004103Y007743D02*
X004543Y007743D01*
X004543Y007893D02*
X004103Y007893D01*
X003401Y007915D02*
X002961Y007915D01*
X003401Y007915D02*
X003401Y007593D01*
X002961Y007593D01*
X002961Y007915D01*
X002961Y007743D02*
X003401Y007743D01*
X003401Y007893D02*
X002961Y007893D01*
D23*
X003383Y017749D02*
X003683Y017749D01*
X003683Y017673D01*
X003383Y017673D01*
X003383Y017749D01*
X003383Y017707D02*
X003683Y017707D01*
X003683Y017741D02*
X003383Y017741D01*
X003383Y017945D02*
X003683Y017945D01*
X003683Y017869D01*
X003383Y017869D01*
X003383Y017945D01*
X003383Y017903D02*
X003683Y017903D01*
X003683Y017937D02*
X003383Y017937D01*
X003383Y018142D02*
X003683Y018142D01*
X003683Y018066D01*
X003383Y018066D01*
X003383Y018142D01*
X003383Y018100D02*
X003683Y018100D01*
X003683Y018134D02*
X003383Y018134D01*
X003383Y018339D02*
X003683Y018339D01*
X003683Y018263D01*
X003383Y018263D01*
X003383Y018339D01*
X003383Y018297D02*
X003683Y018297D01*
X003683Y018331D02*
X003383Y018331D01*
X003383Y018536D02*
X003683Y018536D01*
X003683Y018460D01*
X003383Y018460D01*
X003383Y018536D01*
X003383Y018494D02*
X003683Y018494D01*
X003683Y018528D02*
X003383Y018528D01*
X002521Y018536D02*
X002221Y018536D01*
X002521Y018536D02*
X002521Y018460D01*
X002221Y018460D01*
X002221Y018536D01*
X002221Y018494D02*
X002521Y018494D01*
X002521Y018528D02*
X002221Y018528D01*
X002221Y018339D02*
X002521Y018339D01*
X002521Y018263D01*
X002221Y018263D01*
X002221Y018339D01*
X002221Y018297D02*
X002521Y018297D01*
X002521Y018331D02*
X002221Y018331D01*
X002221Y018142D02*
X002521Y018142D01*
X002521Y018066D01*
X002221Y018066D01*
X002221Y018142D01*
X002221Y018100D02*
X002521Y018100D01*
X002521Y018134D02*
X002221Y018134D01*
X002221Y017945D02*
X002521Y017945D01*
X002521Y017869D01*
X002221Y017869D01*
X002221Y017945D01*
X002221Y017903D02*
X002521Y017903D01*
X002521Y017937D02*
X002221Y017937D01*
X002221Y017749D02*
X002521Y017749D01*
X002521Y017673D01*
X002221Y017673D01*
X002221Y017749D01*
X002221Y017707D02*
X002521Y017707D01*
X002521Y017741D02*
X002221Y017741D01*
D24*
X002657Y017739D02*
X003247Y017739D01*
X003247Y017787D02*
X002657Y017787D01*
X002657Y017836D02*
X003247Y017836D01*
X003247Y017884D02*
X002657Y017884D01*
X002657Y017933D02*
X003247Y017933D01*
X003247Y017981D02*
X002657Y017981D01*
X002657Y018030D02*
X003247Y018030D01*
X003247Y018078D02*
X002657Y018078D01*
X002657Y018127D02*
X003247Y018127D01*
X003247Y018176D02*
X002657Y018176D01*
X002657Y018224D02*
X003247Y018224D01*
X003247Y018273D02*
X002657Y018273D01*
X002657Y018321D02*
X003247Y018321D01*
X003247Y018370D02*
X002657Y018370D01*
X002657Y018418D02*
X003247Y018418D01*
X003247Y018467D02*
X002657Y018467D01*
X002657Y018515D02*
X003247Y018515D01*
X003247Y018564D02*
X002657Y018564D01*
X002657Y018596D02*
X003247Y018596D01*
X003247Y017612D01*
X002657Y017612D01*
X002657Y018596D01*
X002755Y018616D02*
X002755Y018813D01*
X002834Y018813D01*
X002873Y018813D01*
X002873Y018616D01*
X002755Y018616D01*
X002755Y018661D02*
X002873Y018661D01*
X002873Y018710D02*
X002755Y018710D01*
X002755Y018758D02*
X002873Y018758D01*
X002873Y018807D02*
X002755Y018807D01*
X003031Y018807D02*
X003149Y018807D01*
X003149Y018813D02*
X003031Y018813D01*
X003031Y018616D01*
X003149Y018616D01*
X003149Y018813D01*
X003149Y018758D02*
X003031Y018758D01*
X003031Y018710D02*
X003149Y018710D01*
X003149Y018661D02*
X003031Y018661D01*
X003247Y017690D02*
X002657Y017690D01*
X002657Y017642D02*
X003247Y017642D01*
X003149Y017593D02*
X003031Y017593D01*
X003031Y017396D01*
X003149Y017396D01*
X003149Y017593D01*
X003149Y017544D02*
X003031Y017544D01*
X003031Y017496D02*
X003149Y017496D01*
X003149Y017447D02*
X003031Y017447D01*
X003031Y017399D02*
X003149Y017399D01*
X002873Y017399D02*
X002755Y017399D01*
X002755Y017396D02*
X002755Y017593D01*
X002834Y017593D01*
X002873Y017593D01*
X002873Y017396D01*
X002755Y017396D01*
X002755Y017447D02*
X002873Y017447D01*
X002873Y017496D02*
X002755Y017496D01*
X002755Y017544D02*
X002873Y017544D01*
D25*
X011052Y019554D03*
X020052Y019554D03*
X021052Y005054D03*
D26*
X021052Y006054D03*
X020052Y006054D03*
X020052Y005054D03*
X020052Y007054D03*
X020052Y008054D03*
X021052Y008054D03*
X021052Y007054D03*
X021052Y009054D03*
X020052Y009054D03*
X020052Y010054D03*
X020052Y011054D03*
X021052Y011054D03*
X021052Y010054D03*
X021052Y012054D03*
X021052Y013054D03*
X020052Y013054D03*
X020052Y012054D03*
X009552Y010054D03*
X008552Y010054D03*
X008552Y009054D03*
X009552Y009054D03*
X009552Y008054D03*
X009552Y007054D03*
X008552Y007054D03*
X008552Y008054D03*
X008552Y011804D03*
X008552Y012804D03*
X007552Y012804D03*
X007552Y011804D03*
X007552Y013804D03*
X007552Y014804D03*
X008552Y014804D03*
X008552Y013804D03*
D27*
X002952Y018104D03*
D28*
X002002Y018304D03*
X001902Y017614D03*
X003402Y019504D03*
X004252Y017654D03*
X005952Y017604D03*
X007852Y017554D03*
X008792Y016604D03*
X007202Y015654D03*
X005952Y015054D03*
X005052Y014704D03*
X004702Y014704D03*
X005052Y011804D03*
X005252Y011454D03*
X006477Y011804D03*
X005252Y010154D03*
X005252Y009154D03*
X005252Y008654D03*
X005242Y008154D03*
X006602Y009204D03*
X007102Y007254D03*
X006752Y007104D03*
X008602Y005054D03*
X010152Y006394D03*
X010452Y007254D03*
X010682Y007594D03*
X010932Y007884D03*
X011172Y008184D03*
X010652Y008404D03*
X011352Y009404D03*
X011352Y010154D03*
X010952Y010154D03*
X010802Y010704D03*
X010202Y010504D03*
X009452Y011054D03*
X009152Y011354D03*
X012152Y011204D03*
X012652Y011204D03*
X012982Y011194D03*
X013252Y012104D03*
X012352Y012354D03*
X012152Y012054D03*
X013152Y010154D03*
X013552Y008799D03*
X014252Y008814D03*
X012877Y007529D03*
X013287Y007319D03*
X012852Y007054D03*
X012352Y007054D03*
X012327Y007784D03*
X011352Y007074D03*
X011322Y006644D03*
X012102Y005804D03*
X011752Y005454D03*
X012102Y005304D03*
X012552Y005504D03*
X012902Y005404D03*
X013232Y005524D03*
X012372Y006294D03*
X014902Y005554D03*
X015252Y005554D03*
X016002Y006504D03*
X015852Y007354D03*
X015442Y007354D03*
X015052Y007329D03*
X016052Y009074D03*
X016052Y009664D03*
X016232Y010154D03*
X017802Y009904D03*
X017252Y007454D03*
X016952Y007304D03*
X016452Y005554D03*
X014252Y003054D03*
X010852Y002954D03*
X008652Y002954D03*
X007402Y001854D03*
X006402Y002104D03*
X006952Y002954D03*
X004652Y002104D03*
X016002Y012629D03*
X016002Y014679D03*
X017052Y015654D03*
X016052Y015979D03*
X015052Y015954D03*
X012702Y015554D03*
X018102Y014864D03*
X018627Y015704D03*
X018142Y016614D03*
X018052Y017304D03*
X020702Y017154D03*
X020727Y016204D03*
X019552Y013854D03*
X018852Y013854D03*
D29*
X012102Y005304D02*
X012102Y004904D01*
X014252Y003404D02*
X014252Y003054D01*
X007102Y009321D02*
X006985Y009204D01*
X006602Y009204D01*
X005602Y009154D02*
X005252Y009154D01*
X005616Y008664D02*
X005606Y008654D01*
X005616Y008164D02*
X005606Y008154D01*
X005242Y008154D01*
X005232Y010124D02*
X004832Y010124D01*
X005232Y010124D02*
X005262Y010154D01*
X005252Y010154D01*
X005262Y010154D02*
X005602Y010154D01*
X005252Y011454D02*
X005452Y011654D01*
X005602Y011654D01*
X005602Y011604D01*
X005602Y011654D02*
X005602Y012154D01*
X005252Y012004D02*
X005252Y012554D01*
X005362Y012664D01*
X005616Y012664D01*
X005616Y013054D01*
X006422Y013054D01*
X007172Y012304D01*
X008052Y012304D01*
X008552Y012804D01*
X006302Y015654D02*
X006296Y015654D01*
X003602Y018704D02*
X003602Y018854D01*
X003402Y019054D01*
X003402Y019104D02*
X003402Y019504D01*
X005252Y012004D02*
X005052Y011804D01*
X004552Y011804D01*
X004552Y011384D01*
X004932Y011384D01*
X004552Y011384D02*
X004536Y011384D01*
X004532Y011389D01*
D30*
X004702Y014704D02*
X004702Y015104D01*
X005052Y015104D01*
X005052Y014704D01*
X004702Y014704D01*
X006802Y014654D02*
X006808Y014654D01*
X006808Y015654D02*
X007202Y015654D01*
X007452Y007704D02*
X007452Y007254D01*
X007102Y007254D01*
X005896Y005554D02*
X005152Y005554D01*
X004052Y006654D01*
X003181Y006654D01*
X003181Y007754D01*
X002782Y006654D02*
X004052Y006654D01*
X002782Y006654D02*
X002182Y006054D01*
X006602Y003254D02*
X006952Y002954D01*
X008302Y003254D02*
X008652Y002954D01*
X008602Y005054D02*
X008602Y005454D01*
X010852Y003654D02*
X010852Y002954D01*
X011052Y005454D02*
X011752Y005454D01*
D31*
X012102Y005804D02*
X012102Y005854D01*
X011852Y006104D01*
X011802Y006610D02*
X011802Y006614D01*
X012052Y006614D01*
X012372Y006294D01*
X012686Y006294D01*
X012686Y006047D01*
X011802Y006614D02*
X011802Y006874D01*
X011792Y006884D01*
X011816Y006908D01*
X011825Y006908D01*
X011586Y006908D01*
X011322Y006644D01*
X011352Y007054D02*
X011402Y007104D01*
X011752Y007104D01*
X014064Y006047D02*
X014064Y004643D01*
X015052Y003654D01*
X015052Y001554D01*
X016052Y001554D02*
X016052Y003054D01*
X014261Y004846D01*
X014261Y006047D01*
X014457Y006047D02*
X014457Y005049D01*
X017052Y002454D01*
X017052Y001554D01*
X018052Y001554D02*
X018052Y001854D01*
X014654Y005252D01*
X014654Y006047D01*
X014852Y005954D02*
X014852Y005604D01*
X014902Y005554D01*
X016002Y006504D02*
X016002Y007104D01*
X016202Y007304D01*
X016352Y007304D01*
X016552Y007104D02*
X016752Y007104D01*
X016952Y007304D01*
X017552Y007654D02*
X017552Y003654D01*
X019052Y002154D01*
X019052Y001554D01*
X020052Y001554D02*
X020052Y002154D01*
X018352Y003854D01*
X018352Y007754D01*
X017624Y008483D01*
X016489Y008483D01*
X016489Y008286D02*
X016921Y008286D01*
X017552Y007654D01*
X016362Y009074D02*
X016052Y009074D01*
X016052Y009664D02*
X016322Y009664D01*
X016232Y009864D02*
X016232Y010154D01*
X016232Y009864D02*
X016532Y009864D01*
X016532Y009861D01*
X012982Y011194D02*
X012882Y011094D01*
X012882Y010804D01*
X012686Y010701D02*
X012686Y010921D01*
X012652Y011204D01*
X012552Y011604D01*
X012442Y011564D01*
X012488Y011614D01*
X012152Y011404D02*
X012152Y011204D01*
X012152Y011404D02*
X012002Y011554D01*
X008797Y015704D02*
X008797Y016640D01*
X008792Y016634D01*
X008792Y016604D01*
X008792Y016594D01*
X008797Y016650D01*
X008797Y016640D01*
X008797Y016204D02*
X008797Y015704D01*
X007552Y014804D02*
X007502Y014754D01*
X006802Y014754D01*
X006802Y014660D01*
X006808Y014654D01*
X006802Y014660D02*
X006802Y014704D01*
X006852Y014754D01*
X006302Y015154D02*
X006052Y015154D01*
X005952Y015054D01*
X005952Y014804D01*
X006102Y014654D01*
X006202Y014654D01*
X007852Y017154D02*
X007852Y017554D01*
X003952Y017354D02*
X003602Y017704D01*
X003533Y017704D01*
X003533Y017711D01*
X003602Y017704D02*
X003602Y017904D01*
X003602Y018504D02*
X003602Y018704D01*
X002468Y017904D02*
X002172Y017904D01*
X002172Y017711D01*
X002371Y017711D01*
X002371Y017907D02*
X002468Y017904D01*
X002172Y017904D02*
X001902Y017904D01*
X001752Y018054D01*
X001752Y018920D01*
X001896Y019104D01*
X002368Y019074D02*
X002368Y018498D01*
X001902Y017904D02*
X001902Y017614D01*
X002368Y019074D02*
X002408Y019104D01*
X014052Y019554D02*
X014062Y019544D01*
X014062Y019541D01*
X014064Y019543D01*
X014062Y019541D02*
X014062Y019534D01*
X018142Y016614D02*
X018347Y016819D01*
X018625Y016819D01*
X020279Y016819D02*
X020367Y016819D01*
X020702Y017154D01*
X018102Y015204D02*
X018102Y014854D01*
X016452Y005554D02*
X016202Y005554D01*
X006402Y002104D02*
X006402Y001704D01*
X004652Y001654D02*
X004652Y002104D01*
D32*
X006352Y001054D02*
X006379Y001039D01*
X006352Y001054D02*
X006952Y001054D01*
X007002Y001098D01*
X007052Y001054D01*
X007752Y001054D01*
X008002Y001304D01*
X008002Y001504D01*
X008052Y001554D01*
X008052Y001254D01*
X007402Y001854D02*
X007108Y001610D01*
X007002Y001610D01*
X011949Y003482D02*
X012074Y003482D01*
X012079Y003482D01*
X012202Y003604D01*
X012352Y003604D01*
X012802Y004054D01*
X012802Y004554D01*
X012852Y004604D01*
X012652Y004804D01*
X012608Y004884D01*
X012852Y004604D02*
X012952Y004704D01*
X013342Y004704D01*
X013473Y004835D01*
X013473Y006047D01*
X013276Y006047D02*
X013276Y005529D01*
X013252Y005504D01*
X013232Y005524D01*
X013079Y005772D02*
X012952Y005644D01*
X012902Y005384D01*
X012902Y005404D01*
X012762Y005684D02*
X012552Y005504D01*
X012762Y005684D02*
X012883Y005805D01*
X012883Y006047D01*
X013079Y006047D02*
X013079Y005772D01*
X013670Y006047D02*
X013670Y004422D01*
X013635Y004387D01*
X013530Y004387D01*
X013430Y004363D01*
X013794Y004363D01*
X014252Y003904D01*
X014252Y003910D01*
X013430Y004363D02*
X013402Y004334D01*
X012152Y003434D02*
X012035Y003452D01*
X012074Y003482D01*
X011952Y003484D02*
X011949Y003482D01*
X013867Y006047D02*
X013867Y008440D01*
X013552Y008799D01*
X013152Y009054D02*
X014702Y009054D01*
X016061Y007695D01*
X016489Y007695D01*
X016489Y007499D02*
X016058Y007499D01*
X014742Y008814D01*
X014252Y008814D01*
X014852Y009304D02*
X013252Y009304D01*
X011352Y011204D01*
X011352Y015654D01*
X008102Y018904D01*
X007702Y018904D01*
X007052Y019554D01*
X007402Y020554D01*
X008402Y020554D02*
X008052Y019554D01*
X011552Y016054D01*
X011552Y011354D01*
X013402Y009504D01*
X014952Y009504D01*
X015102Y009354D01*
X015102Y009054D01*
X016067Y008089D01*
X016489Y008089D01*
X016489Y007892D02*
X016064Y007892D01*
X014952Y009004D01*
X014952Y009204D01*
X014852Y009304D01*
X014851Y010701D02*
X014851Y011453D01*
X015352Y011954D01*
X019152Y011954D01*
X019552Y011554D01*
X020552Y011554D01*
X021052Y012054D01*
X020552Y012554D02*
X021052Y013054D01*
X020552Y012554D02*
X019652Y012554D01*
X019452Y012354D01*
X015152Y012354D01*
X014457Y011660D01*
X014457Y010701D01*
X014261Y010701D02*
X014261Y011763D01*
X015127Y012629D01*
X016002Y012629D01*
X015252Y012154D02*
X019452Y012154D01*
X019552Y012054D01*
X020052Y012054D01*
X020052Y011054D02*
X019552Y011054D01*
X018852Y011754D01*
X015452Y011754D01*
X015048Y011350D01*
X015048Y010701D01*
X015245Y010701D02*
X015245Y011247D01*
X015552Y011554D01*
X018552Y011554D01*
X019552Y010554D01*
X020552Y010554D01*
X021052Y011054D01*
X021052Y010054D02*
X020552Y009554D01*
X019552Y009554D01*
X017952Y011154D01*
X015752Y011154D01*
X015639Y011041D01*
X015639Y010701D01*
X015442Y010701D02*
X015442Y011144D01*
X015652Y011354D01*
X018252Y011354D01*
X019552Y010054D01*
X020052Y010054D01*
X019189Y009467D02*
X019602Y009054D01*
X020052Y009054D01*
X019552Y008554D02*
X018902Y009204D01*
X016892Y009204D01*
X016826Y009270D01*
X016489Y009270D01*
X016489Y009467D02*
X019189Y009467D01*
X018662Y008924D02*
X019532Y008054D01*
X020052Y008054D01*
X019552Y007554D02*
X020552Y007554D01*
X021052Y008054D01*
X020552Y008554D02*
X021052Y009054D01*
X020552Y008554D02*
X019552Y008554D01*
X018662Y008924D02*
X016882Y008924D01*
X016834Y008876D01*
X016489Y008876D01*
X016489Y008680D02*
X018427Y008680D01*
X019552Y007554D01*
X017252Y007454D02*
X017252Y007054D01*
X017106Y006908D01*
X016489Y006908D01*
X015852Y007154D02*
X015852Y007354D01*
X015852Y007154D02*
X015639Y006941D01*
X015639Y006047D01*
X015442Y006047D02*
X015442Y007354D01*
X015442Y007354D01*
X015052Y007329D02*
X015052Y007154D01*
X015245Y006962D01*
X015245Y006047D01*
X015052Y006054D02*
X015052Y005754D01*
X015252Y005554D01*
X015596Y005554D01*
X015048Y006047D02*
X015048Y006050D01*
X015052Y006054D01*
X013287Y007319D02*
X013287Y008419D01*
X012239Y009467D01*
X011825Y009467D01*
X011825Y009270D02*
X011486Y009270D01*
X011352Y009404D01*
X011212Y009664D02*
X010852Y009304D01*
X009802Y009304D01*
X009552Y009054D01*
X009392Y009484D02*
X010462Y009484D01*
X010836Y009858D01*
X010836Y009861D01*
X011825Y009861D01*
X011825Y009664D02*
X011212Y009664D01*
X011352Y010154D02*
X011052Y010454D01*
X010252Y010454D01*
X010202Y010504D01*
X010472Y010154D02*
X010952Y010154D01*
X010472Y010154D02*
X009952Y009634D01*
X009332Y009634D01*
X009052Y009354D01*
X008852Y009354D01*
X008552Y009054D01*
X009052Y009144D02*
X009052Y008554D01*
X009552Y008054D01*
X009752Y007554D02*
X009052Y007554D01*
X008552Y008054D01*
X009552Y007054D02*
X010152Y007054D01*
X010152Y007654D01*
X010252Y007754D01*
X010252Y008054D01*
X010681Y008483D01*
X010652Y008454D01*
X010652Y008404D01*
X010681Y008483D02*
X011825Y008483D01*
X011825Y008680D02*
X010577Y008680D01*
X010052Y008154D01*
X010052Y007854D01*
X009752Y007554D01*
X010152Y007054D02*
X010152Y006394D01*
X010452Y007254D02*
X011152Y007254D01*
X011396Y007499D01*
X011825Y007499D01*
X011825Y007695D02*
X012118Y007695D01*
X012327Y007784D01*
X011825Y007892D02*
X011510Y007892D01*
X011212Y007594D01*
X010682Y007594D01*
X010932Y007884D02*
X011242Y007884D01*
X011447Y008089D01*
X011825Y008089D01*
X011825Y008286D02*
X011274Y008286D01*
X011172Y008184D01*
X011825Y008876D02*
X012130Y008876D01*
X012602Y008404D01*
X012602Y007304D01*
X012852Y007054D01*
X012877Y007529D02*
X012877Y008479D01*
X012283Y009073D01*
X011825Y009073D01*
X013102Y010154D02*
X013152Y010154D01*
X013079Y010227D01*
X013079Y010377D01*
X013079Y010701D01*
X013276Y010701D02*
X013276Y011280D01*
X012502Y012054D01*
X012152Y012054D01*
X012352Y012354D02*
X012552Y012354D01*
X013473Y011433D01*
X013473Y010701D01*
X013670Y010701D02*
X013670Y016936D01*
X011052Y019554D01*
X011402Y020554D01*
X010402Y020554D02*
X010052Y019554D01*
X012702Y016904D01*
X012702Y015554D01*
X012127Y016479D02*
X009052Y019554D01*
X009402Y020554D01*
X007852Y018554D02*
X007052Y018554D01*
X006052Y019554D01*
X006402Y020554D01*
X004402Y020554D02*
X004052Y019554D01*
X005452Y018154D01*
X007752Y018154D01*
X010952Y014954D01*
X010952Y010854D01*
X010802Y010704D01*
X011152Y011054D02*
X011152Y015254D01*
X007852Y018554D01*
X007257Y017154D02*
X006808Y017154D01*
X006903Y017059D01*
X006902Y016654D02*
X006808Y016654D01*
X007102Y016654D01*
X007552Y016204D01*
X008207Y016204D01*
X008202Y015704D02*
X007652Y015704D01*
X007202Y016154D01*
X006808Y016154D01*
X006808Y016654D02*
X006752Y016654D01*
X006302Y016654D02*
X006296Y016654D01*
X006252Y016698D01*
X006252Y016704D01*
X004655Y018301D01*
X003533Y018301D01*
X003533Y018104D02*
X004502Y018104D01*
X006002Y016604D01*
X006002Y016454D01*
X006252Y016204D01*
X006252Y016198D01*
X006296Y016154D01*
X006302Y016160D01*
X006302Y016254D01*
X006002Y016154D02*
X006002Y015898D01*
X006302Y015654D01*
X006308Y015654D01*
X006808Y015154D01*
X006002Y016154D02*
X005802Y016354D01*
X005802Y016454D01*
X004602Y017654D01*
X004252Y017654D01*
X003586Y017904D02*
X003533Y017907D01*
X002371Y018104D02*
X002002Y018104D01*
X002002Y018304D01*
X002368Y018498D02*
X002371Y018498D01*
X002408Y019104D02*
X002846Y019104D01*
X005952Y017604D02*
X005952Y017498D01*
X006296Y017154D01*
X006302Y016704D02*
X006302Y016660D01*
X006296Y016654D01*
X006302Y016604D01*
X008152Y015704D02*
X008202Y015704D01*
X008207Y015704D01*
X006142Y012664D02*
X006128Y012664D01*
X006142Y012664D02*
X006152Y012654D01*
X006128Y012630D01*
X006128Y012164D01*
X006138Y012154D01*
X006477Y011804D01*
X006128Y011664D02*
X006112Y011664D01*
X006102Y011654D01*
X006128Y011628D01*
X006128Y011164D01*
X006438Y010854D01*
X008652Y010854D01*
X009152Y011354D01*
X009452Y011054D02*
X009052Y010654D01*
X006152Y010654D01*
X006142Y010664D01*
X006128Y010664D01*
X006118Y010654D01*
X006102Y010654D01*
X006128Y010664D02*
X006128Y010180D01*
X006112Y010164D01*
X005612Y009664D01*
X005616Y009664D01*
X005612Y009664D02*
X005602Y009654D01*
X006128Y009664D02*
X006312Y009664D01*
X006728Y010080D01*
X006728Y010187D01*
X006702Y009754D02*
X006128Y009180D01*
X006128Y009164D01*
X006128Y008678D01*
X006142Y008664D01*
X006128Y008664D01*
X007092Y008664D01*
X007102Y008654D01*
X007102Y008587D01*
X006735Y007721D02*
X006728Y007721D01*
X006735Y007721D02*
X006752Y007704D01*
X006712Y007664D01*
X006128Y007664D01*
X006128Y008128D01*
X006102Y008154D01*
X006112Y008164D01*
X006128Y008164D01*
X006152Y008654D02*
X006142Y008664D01*
X005606Y008654D02*
X005442Y008654D01*
X005252Y008654D01*
X005402Y008654D02*
X005442Y008654D01*
X005616Y007664D02*
X005616Y007628D01*
X005562Y007624D01*
X005582Y007624D01*
X005952Y007254D01*
X006602Y007254D01*
X006752Y007104D01*
X009052Y009144D02*
X009392Y009484D01*
X011152Y011054D02*
X013152Y009054D01*
X013867Y010701D02*
X013867Y018740D01*
X013052Y019554D01*
X013052Y020554D01*
X014052Y020554D02*
X014052Y019554D01*
X014064Y019543D02*
X014064Y010701D01*
X014654Y010701D02*
X014654Y011556D01*
X015252Y012154D01*
X013252Y012104D02*
X012127Y013229D01*
X012127Y016479D01*
X015052Y015954D02*
X015052Y019554D01*
X015052Y020554D01*
X015052Y019554D01*
X016052Y019554D02*
X016052Y020554D01*
X016052Y019554D01*
X016052Y015979D01*
X017052Y015654D02*
X017052Y019554D01*
X017052Y020554D01*
X017052Y019554D01*
X018052Y019554D02*
X018052Y020554D01*
X018052Y019554D01*
X018052Y017304D01*
X018625Y016189D02*
X018625Y016156D01*
X018627Y016154D01*
X018627Y015704D01*
X018627Y016079D02*
X018625Y016081D01*
X018625Y016189D01*
X018592Y016089D01*
X018577Y016154D01*
X018183Y015760D01*
X018102Y015710D01*
X018096Y015729D01*
X018027Y015729D01*
X017327Y015029D01*
X016352Y015029D01*
X016002Y014679D01*
X018852Y014910D02*
X019052Y015110D01*
X019052Y019554D01*
X019052Y020554D01*
X019052Y019554D01*
X019552Y019054D02*
X020052Y019554D01*
X020052Y020554D01*
X020052Y019554D01*
X019552Y019054D02*
X019552Y014910D01*
X019552Y014398D02*
X019552Y013854D01*
X018852Y013854D02*
X018852Y014398D01*
X020279Y016189D02*
X020737Y016189D01*
X020727Y016204D01*
X016946Y009904D02*
X016996Y009860D01*
X016996Y009861D01*
X016532Y009861D01*
X016489Y009861D01*
X016996Y009860D02*
X017002Y009854D01*
X012352Y007084D02*
X012352Y007054D01*
X012352Y007084D02*
X012135Y007302D01*
X011825Y007302D01*
X007476Y010128D02*
X007102Y009754D01*
X006702Y009754D01*
X006128Y010164D02*
X006112Y010164D01*
X006102Y010154D01*
X005652Y010654D02*
X005642Y010664D01*
X005552Y010754D01*
X004536Y010754D01*
X004536Y011069D02*
X005637Y011069D01*
X005652Y011054D01*
X005637Y011069D02*
X005616Y011090D01*
X005616Y011164D01*
X006102Y011154D02*
X006118Y011154D01*
X006128Y011164D01*
X006138Y011154D01*
X005642Y010664D02*
X005616Y010664D01*
X007476Y010187D02*
X007476Y010128D01*
D33*
X004302Y008304D02*
X004302Y007704D01*
X004323Y007725D01*
X004323Y007754D01*
X006952Y005154D02*
X007302Y005504D01*
X007352Y005454D01*
X007391Y005454D01*
X007602Y005454D01*
X008652Y004404D01*
X008652Y004087D01*
X009420Y003654D02*
X009026Y003261D01*
X009420Y003654D02*
X009791Y003654D01*
X009802Y003665D01*
X009802Y004154D01*
X009302Y004904D02*
X009552Y005154D01*
X009552Y005404D01*
X009741Y005404D01*
X009791Y005454D01*
X007702Y003604D02*
X007358Y003261D01*
X007326Y003261D01*
X006952Y004087D02*
X006952Y005154D01*
X007302Y005454D02*
X007391Y005454D01*
X004509Y015948D02*
X003902Y015948D01*
X003902Y016554D01*
X003902Y015954D01*
X004452Y015954D01*
X004458Y015948D01*
X004509Y015948D01*
D34*
X003902Y016554D03*
X003952Y017354D03*
X004302Y008304D03*
X007152Y006304D03*
X009252Y006004D03*
X009302Y004904D03*
X009802Y004154D03*
X007702Y003604D03*
D35*
X007391Y005454D02*
X007341Y005504D01*
X007302Y005504D01*
X007252Y005504D01*
X007252Y006204D01*
X007152Y006304D01*
M02*
